<?xml version="1.0" encoding="UTF-8"?>
<svg id="Layer_2" data-name="Layer 2" xmlns="http://www.w3.org/2000/svg" viewBox="0 0 327.39 302.27">
  <defs>
    <style>
      .cls-1 {
        fill: #c49a6c;
      }

      .cls-2 {
        fill: #8dc63f;
      }

      .cls-3 {
        fill: #158040;
      }

      .cls-4 {
        fill: none;
        stroke: #754c29;
        stroke-miterlimit: 10;
      }

      .cls-5 {
        fill: #006838;
      }
    </style>
  </defs>
  <g id="frunze2">
    <path class="cls-5" d="m41.57,69.36c-1.33,1.36-3.15,2.82-4.66,3.9s-4.74-.18-6.38.69-3.56,1.24-5.26,1.95c-1.78.75-4.42-1.05-6.12-.43-1.86.69-1.36,7.34-2.99,7.98-1.95.76-6.12-3.61-7.52-2.77-1.91,1.14-1.42,4.67-1.83,6.33-.47,1.88-3.15,4.45-2.48,6.04s2.98,2.8,3.99,4.28.18,3.36.8,4.94,3.73,2.1,3.2,3.99c-.61,2.17-3.82,1.69-5.23,3.09-1.48,1.46-1.97,3.84-3.44,5.2s-1.52,4.01-2.07,6.14c-.58,2.26-.08,3.15,2.03,4.92,1.18.99,3.41,1.34,5.47,2.95,1.37,1.08,1.89,3.65,3.67,5.21,1.37,1.21,2.1,3.34,3.72,4.93,1.34,1.31,3.4,2.09,4.91,3.71,1.3,1.4,1.09,4.25,2.52,5.91,2,2.31,5.69,2.1,6.31,3.4,2.03,4.3-3.17,3.79-3.73,4.52-1.33,1.75-2.92,4.03-5.88,3.81-1.81-.13-3.6-1.61-6.23-.95-1.83.46-4.8-.88-7.08.44-1.62.93-3.79,2.61-4.83,4.32-.94,1.54.61,4.47.1,6.43-.46,1.78-2.4,3.43-2.54,5.41-.13,1.88,1.2,3.85,1.33,5.78s1.51,3.55,1.89,5.41,1.22,3.44,1.85,5.18c.71,1.96-2.71,5.91-1.68,7.72s2.91,3.53,4.2,5.15,2.78,3.57,4.27,4.99,4.53,1.42,6.2,2.61,3.51,2.53,5.31,3.44c1.93.98,4.75-.74,6.65-.18,2.12.63,3.68.8,5.63.85,2.23.05,4.77,2.9,6.56,2.09,1.9-.87,3.22-2.99,4.41-4.49s2.34-3.23,3.36-4.91-.49-5.83.93-7.16c1.33-1.25,5.17.82,7.33.33,2.19-.5,3.76,1.21,5.82,1.71,2.69.65,8.33-1.31,8.77.36.4,1.5-3.42,3.89-5.06,5.42-1.18,1.1-3.84.71-5.32,1.85s-3.77,1.81-4.9,2.99c-1.46,1.51,2.4,4.37,2.7,5.98.29,1.58-1.81,4.73.19,5.9,1.57.92,4.04,1.09,6.04,1.38s4.73,1.72,6.55,1.11c2.1-.7.48-5.68,1.6-7.3,1.06-1.52,2.61-2.32,3.37-4.33.67-1.77,1.37-3.73,2.21-5.65.77-1.75,1.72-3.9,2.93-5.62,1.08-1.54,5.1-.54,6.74-1.92,1.62-1.36,3.53-1.15,5.38-2.05s2.53-4.43,4.5-4.93c2.1-.54,4.34,1.32,6.31,1.18,2.29-.16,4.07-.75,5.87-.48,2.99.45,3.93.41,4.32,1.56.41,1.21,1.61,4.09-.68,5.68-1.38.96-4.93-.8-6.66.29-1.59,1-1.19,4.95-2.69,6.06-1.63,1.2-5.25-.11-6.36,1.22-1.35,1.63-4.56,4.22-4.36,6.04.21,1.92,3.95,4.06,5.9,5.59,1.5,1.17,4.13,1.14,6.27,2.05,1.87.8,3.31,3.49,5.42,4.08s5.14-3.53,7.21-3.17c2.21.39,3.8,4.23,5.77,4.36,2.11.14,4.29,2.31,5.9,2.13,2.08-.23,2.74-5.75,4.32-6.3,1.83-.63,4.09.54,5.79-.16,1.61-.66,2.86-3.8,4.86-4.18,1.59-.31,3.87,5.19,6,5.24,2.25.05,4.12-1.37,6.02-.95,2.17.48,4.8-.94,6.6-.16,2.02.88,3.37,2.94,5.06,3.97,1.89,1.15,3.07,3.22,4.73,4.24,1.92,1.19,4.76-.24,6.63.29s3.28,1.27,5.49.56c1.91-.61,5.27.71,6.6-.6s.96-4.38,1.92-6.08,1.47-3.5,2.25-5.24.86-3.91,1.69-5.53c.92-1.8,1.16-4.55,2.38-5.83,1.32-1.38,4.97,1.82,6.96,1.48,2.19-.37,2.36.31,4.26,1.28s6.02-1.79,7.66-.41,3.51,2.34,5.1,3.43c1.99,1.36,2.16,2.44,4.14,1.77,1.78-.61,3.13-.77,3.95-2.88.63-1.63.19-3.64.51-5.76.28-1.87-.88-3.96-.66-5.95s6.22-3.14,6.54-5.01c.36-2.09-1.03-4.02-.34-5.66.85-2.01.89-3.7,2.63-4.46,1.7-.74,3.74-1.97,5.68-1.21,1.56.62.93,5.18,2.59,6.39,1.44,1.05,6.14-1.92,7.63-.67s2.48,2.88,3.92,4.07,1.08,4.99,2.57,5.99c1.68,1.14,4.19.98,5.82,1.53,1.9.64,3.03-1.97,4.8-2.59,1.82-.64,5.02,1.05,6.17-.74.96-1.5,3.88-2.94,4.53-4.98.56-1.77-3.63-5.02-3.2-7.02.41-1.88,4.87-3.01,5.24-4.96s.1-3.96.51-5.84c.44-2,.04-4.01.62-5.77.67-2.03,1.97-3.15,2.98-4.62,1.19-1.74,1.99-1.13,3.88-1.66,2.12-.6,3.56-3.78,5.29-2.88s2.7,3.29,4.42,4.19,2.94-1.94,5.06-2.47c1.85-.47,2.75-.05,4.33-1.79,1.27-1.41,4.81-1.32,5.85-3.35.9-1.75-1.26-4.83-.56-6.92.64-1.92,4.38-3,4.83-5.1s1.13-4.16,1.36-6.25-1.1-4.33-1.09-6.41-2.43-3.94-2.67-5.97c-.25-2.14,1.01-4.27.45-6.21-.6-2.1-3.08-2.87-4.07-4.59-1.08-1.89-1.21-3.35-2.8-4.62-1.92-1.54-2.54-3.56-4.37-3.95-2.01-.43-4.77,1.92-6.85,1.3-1.71-.51-3.93-2.67-5.79-4.35-1.67-1.5-2.13-4.26-2.96-5.96-.91-1.88.85-4.39.53-6.38s-5.05-3.53-5.24-5.52,2.93-4.55,2.34-6.43-.28-5.34-1.85-6.85c-1.42-1.37-5.48,1.2-7.4.56-1.79-.6-3.1-4.29-5.15-4.4-1.91-.1-4.25-.98-6.25-.79s-3.4,4.66-5.32,5.01-3.71,1.58-5.54,2c-2.13.49-5.07-3.4-6.75-3.03-3.17.69-4.63,2.94-4.97,2.06-.34-.87,1.08-2.17,3.88-3.76,1.46-.83,2.32-3.22,4.16-4.34,1.57-.95,2.88-2.16,4.5-3.36,1.52-1.13,3.71-1.23,5.1-2.62s1.51-3.35,2.59-4.98,3.67-2.14,4.31-4.02c.64-1.88,2.77-3.65,2.89-5.55s.13-4.29-.16-6.18.31-4.52-.29-6.33c-.63-1.9-4.22-2.78-5.02-4.45-.92-1.9-4.36-2.1-5.27-3.57-1.44-2.31-2.17-4.09-2.76-4.87-1.22-1.62-1.74-3.54-3.15-4.99s-3.68-1.63-5.24-2.92-1.69-4.23-3.37-5.35-2.2-4.38-3.98-5.32-3.44-2.79-5.29-3.56-5.35,2.58-7.26,1.99-3.69-1.62-5.64-2.03-4.03.1-5.99-.09c-2.08-.21-3.98-3.4-5.94-3.35-2.11.05-4.51-.55-6.42-.2-2.09.39-4.48,1.2-6.25,1.95-1.95.83-3.81,2.77-5.28,4.04-1.72,1.49-.64,6.07-2.14,7.75-1.93,2.16-5.46,2.44-7.46,1.97-1.64-.38-3.49-1.68-4.28-3.66-.62-1.56.24-3.99-.67-5.59s-2.73-2.03-4.5-2.83c-1.31-.6-3.3-2.46-5.11-1.85-1.54.52-2.49,2.98-3.83,3.91-1.68,1.16-3.99,1.9-4.46,2.95-.84,1.84,1.04,3.56,1.64,5.12s1.83,2.9,2.63,4.35c.92,1.67,3.03,5.16,2.15,6.81-1.46,2.75-1.35,5.44-6.87,4.22-2.16-.48-3.42-4.31-5.33-4.8-2.16-.55-3.55-3.06-5.43-3.62-2.16-.64-4.13-.9-5.96-1.53-2.16-.75-5.37,1.99-7.14,1.27-2.15-.87-2.44-5.35-4.15-6.13-2.14-.97-4.13-1.7-5.85-2.44-2.08-.89-4.86-.08-6.82-.48s-4.09,1.29-6.4,1.51c-2.09.2-4.93-2.62-6.59-2.01-1.88.7-1.26,5.99-2.76,7.08s-5.01-.16-6.37,1.21-1.81,3.53-3.16,4.93-2.76,2.56-4.26,3.82c-1.41,1.18-2.69,2.71-4.43,3.71-1.56.89-3.27,1.97-5.2,2.63-1.68.57-3.25,3.31-5.29,3.65-2.18.37-4.67-5.55-6.52-5.55-2.21,0-4.35,3.83-6.17,3.53-2.18-.36-4-1.63-5.8-2.06-2.14-.51-4.12-3.97-6-3.93s-1.96,6.06-3.91,7.35c-1.97,1.3-4.36.56-5.3,2.14-1.05,1.78-2.37,3.31-2.7,5.37-.31,1.93,1.31,4.17,1.08,6.28-.21,1.95-1.94,3.85-2.5,5.9-.5,1.85-3.6,2.41-4.71,4.3-.94,1.61,1.96,6.39.38,8Z"/>
    <path class="cls-3" d="m52.62,113.46c.23-.71,3.96-1.77,5.09-4.66.65-1.65-1.76-4.95-.83-6.98.8-1.74.46-4.43,1.46-6.29.94-1.75,8.87.61,9.99-1.11s-3.28-7.38-2-8.92,5.77-.22,7.27-1.49c1.59-1.35,2.46-3.34,4.24-4.18s3.95,2.6,5.99,2.47c2.21-.14,4.07-4.76,5.79-4.01s3.27,2.1,4.98,3.45c1.39,1.1,1.82,3.69,3.52,5.05,1.4,1.11,1.48,4.62,3.26,5.83,1.5,1.02,5.71-1.8,7.57-.76,1.59.89,3.49,1.31,5.41,2.19,1.68.77,2.9,2.83,4.87,3.57,1.98.74,3.89,1.02,5.53,1.53,2.07.64,4.82-2.11,6.42-1.64,2.13.62,4.58,1.29,6.06,2.05,1.7.87-2.45,7.63-1.34,9.43,1.07,1.72,1.81,1.67,2.04,3.65s-.14,2.82-.47,4.85c-.32,1.91,6.58,5.67,5.94,7.58s-2.13,3.77-2.9,5.57c-.82,1.91-1.5,3.92-2.29,5.6-.76,1.62-1.14,3.98-2.25,6.11-.9,1.72-1.58,4.15-2.77,6.07-1.06,1.7-3.38,3.11-4.72,4.87-1.23,1.61-2.4,3.87-3.9,5.47-1.39,1.49-6.09-.1-7.75,1.31-1.55,1.33-.2,6.98-2,8.2-1.69,1.15-5.16.22-7.09,1.24-.77.41-4.59-2.41-7.35-1.2-1.64.72-4.18-.73-6.29.01-1.81.64-3.42,1.14-5.48,1.67-1.92.5-2.29,8.74-4.33,9.05s-4.54-.53-6.58-.5-4.52-.18-6.52-.51-5.25.81-7.15.04-1.74-6.15-3.41-7.41c-1.67-1.25-.06-4.96-1.29-6.51s-7.14,0-8-1.84,3.19-5.27,2.68-7.25-7.83-2.71-8.06-4.73,7.91-4.48,7.9-6.5-1.94-3.86-1.78-5.85.8-3.87,1.09-5.8c.31-2.1,1.92-3.68,2.31-5.54.46-2.2-5.64-5.72-5.18-7.43.78-2.92,2.06-4.95,2.32-5.77Z"/>
    <path class="cls-3" d="m148.39,59.94c.96-.71,2.92.57,4.2.22,1.13-.31,2.12-.25,3.45-.29,1.18-.04,2.18.42,3.49.59,1.19.15,2.28.16,3.54.46,1.17.28,2.88-1.31,4.1-.91,1.15.38,1.81,2.18,2.99,2.66s2.24.91,3.38,1.47,2.73.09,3.83.7,1.81,1.81,2.88,2.48,2.42.85,3.44,1.58,2.43.96,3.41,1.74,2.56.94,3.5,1.76.56,3.12,1.44,4,2.22,1.35,3.05,2.28.68,2.67,1.43,3.65,1.03,2.24,1.71,3.28,2.11,1.58,2.7,2.67,3.06,1.41,3.53,2.56-2.49,3.51-2.15,4.7c.47,1.65,3.13,2.37,3.32,3.63.21,1.37.53,2.58.93,4.15.3,1.17-1.78,3.39-1.12,5,.51,1.26,4,1.1,4.58,2.2.63,1.21-1.38,3.94-.69,4.98.75,1.13,2.42,1.67,3.22,2.64.87,1.05,2.26,1.59,3.14,2.47.97.96,1.74,2.07,2.69,2.88,1.04.9,2.48,1.21,3.44,1.99,1.09.88,2.64,1.15,3.53,1.96,1.05.97,2.2,2.09,2.83,3.1.69,1.12.32,2.94.31,4.32,0,1.25-1.53,2-2.15,3.21-.54,1.06-1.64,1.39-2.58,2.4-.82.89-1.65,1.45-2.72,2.28-.97.75-.52,3.58-1.66,4.27-1.06.65-1.78,2.23-2.96,2.82s-3-.28-4.2.23-2.46.76-3.68,1.18-2.78-.39-4.02-.03-1.97,2.62-3.22,2.9-2.94-1.66-4.19-1.45-2.22,2.99-3.47,3.11c-1.23.12-2.72-2.11-4.04-2s-2.52-.54-3.82-.5-2.48,1.11-3.75,1.06-2.51-.05-3.76-.24-2.44-.43-3.64-.82-2.96.25-4.04-.43-1.4-2.31-2.26-3.3c-.87-1-2.46-1.54-2.97-2.71s-1.84-2.41-2.04-3.71c-.19-1.23,2.23-2.74,2.25-4.07.03-1.25.03-2.44.2-3.75s1.38-2.26,1.63-3.55.27-2.49.57-3.76.18-2.58.48-3.83-1.85-3.08-1.56-4.33.97-2.4,1.21-3.64.35-2.5.5-3.75c.16-1.31.47-2.47.47-3.72,0-1.33,2.62-2.94,2.4-4.17-.23-1.29-3.21-1.83-3.75-2.98s.86-3.83-.05-4.8c-1.04-1.11-3.98.37-5.09-.19-1.25-.63-2.31-.94-3.61-1.26s-2.92.13-4.23-.27c-1.24-.38-.91-4.19-2.12-4.98-1.02-.67-2.85-.16-3.82-1.35-.8-.97-3.2-1.12-3.8-2.28s-.84-2.69-1.23-3.92-.99-2.61-1.2-3.88,2.61-2.85,2.58-4.12-2.03-2.65-1.87-3.9c.16-1.31,2.69-2,3.06-3.18.4-1.28-1.6-3.56-.95-4.6.71-1.13,2.02-2.21,3.02-2.94Z"/>
    <path class="cls-3" d="m132.37,169.78c.87-.92,2.02-1.8,3.02-2.6s3-.24,4.09-.92,2.35-.83,3.51-1.38,2.24-.99,3.45-1.4,1.99-2.29,3.24-2.57,2.69.56,3.96.43,2.54-1.37,3.81-1.34,2.49,1.24,3.73,1.46,2.54.29,3.74.71c1.22.43,2.55.43,3.58.97s1.89,1.53,2.99,2.14c.99.55,2.17.79,3.38,1.33,1.01.45,1.61,2.32,2.88,2.74,1.05.34,2.7-.99,4-.68,1.48.34,2.39,2.29,3.41,2.47,2.09.36,3.56-.62,3.74.13.19.76-1.41.99-3,2.13-.89.64-1.23,2.49-2.52,3.19-1.05.57-2.76.05-4,.63-1.12.53-2.44.66-3.67,1.18-1.17.49-2.18,1.36-3.4,1.83s-2.46.73-3.68,1.16-1.95,2.37-3.16,2.76c-.55.17-1.8.57-3.5,1.07-1.02.3-2.05,1.23-3.36,1.58-1.1.3-2.64-.71-3.88-.4-1.14.28-2.31.66-3.53.92s-2.14,1.74-3.35,1.96-2.53-.09-3.73.09-2.55-.49-3.74-.39c-1.26.11-2.47.19-3.64.2-1.29.01-2.42-.71-3.55-.85-1.33-.17-2.81.76-3.81.34-1.24-.53-1.73-1.86-2.3-2.87-.56-1,.16-1.86.33-3.09.15-1.08-.16-2.17.34-3.29.47-1.05.84-2.15,1.46-3.12.67-1.05,1.56-1.85,2.21-2.68,1.14-1.47.78-3.64.96-3.82Z"/>
    <path class="cls-3" d="m252.2,125.25c.78-1.07.49-2.89,1.24-3.9.79-1.07,1.11-2.49,1.89-3.47.84-1.06,1.89-1.94,2.73-2.85.93-1,2.85-.82,3.8-1.58,1.07-.86,1.97-1.45,3.09-1.93,1.2-.51,2.15-.84,3.46-.83,1.34,0,2.35-.05,3.39.47s1.95,1.19,2.88,2.1c.82.8,1.51,1.78,2.36,2.77.75.88,1.31,2.04,2.18,3,.79.86,2.29,1.11,3.24,1.98.86.79,2.38.74,3.42,1.49.94.68,1.81,1.33,2.94,1.95,1.01.57,1.37,2.53,2.56,3.04,1.37.57,2.54,1.52,3.7,1.85,1.46.41,2.87.78,4.03.95,1.58.24,2.81.56,3.9.76,1.51.29,3.33-.8,4.04.47.56,1.01.62,2.59.51,4.03-.09,1.14.41,2.78-.05,4.1-.4,1.12-1.54,2.18-2.18,3.37-.58,1.07-1.93,1.77-2.69,2.86-.71,1.01-.99,2.43-1.84,3.43s-1.8,1.83-2.73,2.73-1.61,2.08-2.62,2.89-2.35,1.19-3.42,1.89-2.26,1.24-3.39,1.82-2.27,1.23-3.46,1.68c-1.18.45-2.48.59-3.71.9s-2.45.67-3.7.86-2.51.52-3.78.59-2.59.62-3.85.57-2.52-.89-3.77-1.05-2.67.26-3.89,0-2.02-2.32-3.21-2.69-2.39-.65-3.54-1.13-2.08-1.33-3.16-1.92c-1.14-.63-2.17-1.12-3.15-1.85-1.05-.78-2.12-1.27-2.97-2.14-.91-.95-2.38-1.35-3.01-2.4-.67-1.12-.34-2.55-.63-3.76-.32-1.34-.62-2.49-.47-3.85s.08-2.65.57-3.98c.45-1.21,1.41-2.23,2.09-3.47.62-1.14-.13-3.21.64-4.39.72-1.1,2.48-1.58,3.28-2.71s2.46-1.53,3.27-2.65Z"/>
    <path class="cls-3" d="m17.36,183.85c-.23-.84-.33-2.19.58-3.35.62-.79,2.11-.94,3.11-1.71.85-.66,1.19-2.3,2.25-2.87.98-.52,2.16-1.01,3.26-1.38s2.43.1,3.57-.06c1.13-.16,2.29.16,3.74.42,1.11.2,2.61-.52,4-.09,1.1.34,1.91,1.95,3.24,2.44,1.11.4,2.4.58,3.7,1.08,1.12.43,2.69-.06,3.97.43,1.43.56,2.44,1.65,3.51,2.09,1.56.65,3.07.55,3.99.99,2.73,1.31,2.23,2.71,2.37,3.2.28,1.02.19,1.97-.43,3.24-.47.96-.66,2.3-1.52,3.3-.73.86-2.36.93-3.3,1.77-.87.78-1.29,2.12-2.29,2.84s-1.81,1.66-2.84,2.27-2.25,1.01-3.31,1.49c-1.14.52-2.14,1.47-3.24,1.79-1.25.37-2.62.15-3.72.18-1.34.04-2.81.05-3.74-.55-1.03-.66-1.33-2.02-1.67-3.15-.29-.99-.47-2.13-.74-3.32-.24-1.03-1.03-1.83-1.6-2.91-.48-.91-.39-2.3-1.32-3.16-1.17-1.09-2.43-2.03-3.67-2.51-1.49-.59-3.16-.12-4.42-.34-1.95-.34-3.17-.95-3.48-2.12Z"/>
    <path class="cls-3" d="m175.32,38.57c.48-1.3,2.63-2.69,4.81-3.29,1.46-.4,3.25-1.39,5.16-1.63,1.64-.2,3.6,1.3,5.39,1.14s3.63,1,5.34.81c1.79-.2,3.26-2.48,4.88-2.79,1.89-.37,4.18.77,5.57.12,1.83-.85,1.33-3.36,1.74-4.95.74-2.82.82-3.7,2-6.14.66-1.36,1.04-2.17,3.13-2.75,1.51-.41,3.1-.46,5.06-.51,1.68-.04,3.29.48,5.13.68,1.73.19,3.86-1.85,5.6-1.46s2.75,3.31,4.38,3.88c1.64.57,4.6-1.76,6.28-.94,1.59.78,2.62,2.9,4.18,3.87s3.26,1.73,4.7,2.84,1.39,3.91,2.68,5.15,2.66,2.3,3.76,3.67c1.17,1.46,1.68,3,2.51,4.53.89,1.66,1.37,2.95,1.76,4.65.42,1.8,3.28,3.4,3,5.18-.28,1.81-.8,4.01-1.71,5.54s-3.55,1.85-4.84,3.14-1.51,3.73-2.94,4.83-3.72,1.07-5.15,2.07c-1.52,1.07-2.71,2.48-4.04,3.52-1.55,1.21-4.03,1.42-4.98,2.68-1.18,1.55-2.06,4.04-1.73,5.83.32,1.74,2.41,3.06,3.62,4.1,1.97,1.68,3.52,1.82,3.42,1.99-.09.15-1.45.91-4.42-.48-1.36-.64-3.08-1.21-4.88-2.1-1.46-.72-1.8-3.98-3.48-4.84-1.49-.76-4.21.64-5.84-.22-1.51-.79-3.06-1.67-4.65-2.53s-2.28-3.1-3.85-3.97-3.63-.69-5.18-1.57-2.35-2.96-3.87-3.86-3.98-.24-5.47-1.15-3.44-1.24-4.9-2.17-1.5-4.25-2.93-5.21c-1.51-1.01-4.39.04-5.78-.94-1.51-1.07-2.59-2.67-3.9-3.7-1.5-1.17-1.7-3.66-2.89-4.75-1.49-1.37-2.46-2.62-3.36-3.82-1.43-1.9-3.78-3.16-3.3-4.45Z"/>
    <path class="cls-3" d="m83.93,52.68c1.26.07,2.47.75,3.61.58,1.22-.18,2.16-1.27,3.27-1.67s1.99-1.19,3.03-1.76,3.08.36,4.05-.32,1.01-2.74,1.94-3.47c.98-.77,2.52-.76,3.44-1.46,1.01-.78,1.81-1.7,2.77-2.29,1.11-.68,2.39-.28,3.48-.54,1.17-.28,2.17-1.42,3.37-.99,1.3.45,2.3,1.34,3.14,2.29s1.22,2.28,2,3.33,1.25,2.58,2.32,3.36c.94.69,2.64.3,4.09.56,1.2.21,2.18.05,3.06-.06,1.63-.2,2.66-.32,3,.26.35.59-.13,1.95-1.37,3.59-.7.92-1.1,2.52-2.2,3.52-.93.84-2.08,1.79-3.25,2.56-1.08.72-3.17-.3-4.42.27s-2.24,1.12-3.56,1.44c-1.65.41-2.65.42-3.83.34-1.34-.09-2.82,1.37-4.31,1.02-1.13-.26-2.32-.68-3.95-.89-1.18-.15-2.46-.2-4.05-.24-1.4-.04-2.65.15-3.88.22-1.41.08-2.62.35-3.83.52-1.41.2-2.69.17-3.87.41-1.43.29-2.68.72-3.84.96-1.47.3-2.92-.53-4.08-.58-1.33-.06-3.22.54-4.34-.38-.91-.75-1.38-2.36-1.91-3.42s.05-2.56-.05-3.66c-.13-1.37.41-1.89,1.07-2.65.72-.83.89-.58,2.26-.4.97.13,2.39-1.45,3.64-1.21,1.04.2,2.03.72,3.23.79Z"/>
    <path class="cls-3" d="m221.45,194.2c-1.6-.02-3.5,1.69-5.23,1.35-1.63-.32-3.15-1.54-4.76-2.12s-3.29-1.11-4.74-1.93-2.14-2.81-3.35-3.91c-1.3-1.18-2.35-2.18-3.13-3.62s-.94-2.79-.99-4.53c-.04-1.64.25-2.86.89-4.4s.08-3.68,1.15-4.98,2.23-2.65,3.53-3.66,3.35-1.03,4.8-1.72c1.56-.75,2.91-2.26,4.43-2.52,1.77-.31,3.57.5,5,.99,1.77.61,3.16,1.67,4.11,3.18.87,1.39.76,3.44,1.51,5.09.72,1.57,1.56,3.3,2.67,4.67,1.04,1.27,2.82,2.06,4.6,2.82,1.79.76,3.67,1.45,5.38,1.36,1.92-.11,3.49-1.8,5.05-2.32,2.69-.9,5.47-1.69,5.94-.91.38.63-1.58,2.21-3.02,4.28-.8,1.14-.72,3.31-1.98,4.6-1.06,1.08-2.34,2.2-3.68,3.24-1.23.95-3.11,1.08-4.55,1.9s-2.54,2.09-4.07,2.67-3.23.22-4.84.52-3.05-.02-4.7-.04Z"/>
  </g>
  <g id="radacina2">
    <path class="cls-1" d="m151.9,301.77s4.43-28.6,3.4-36.77-11.23-31.32-11.23-31.32l-10.54-32.34s-20.71-11.95-25.38-24.51-10.39-38.34-10.39-38.34l4.77-2.17,12.6,40.51,8.68,6.21-4.6-32.09-23.23-33.02-4.68-21.11h5.11l10.21,27.57,21.11,27.57,3.4,30.3,12.94,21.11s5.96,29.11,9.19,31.66c3.23,2.55,5.45,1.02,5.45,1.02l-5.79-36.77c-3.44-8.68-.94-18.84-8.68-27.06l11.58-21.85-4.94-24.96.51-10.21,4.94,7.49s5.11,27.57,5.79,32.76-12.13,14.05-10.89,17.96l10.89,34.38,3.06,26.55,7.83-14.98,9.87-14.98s-9.99-12.77-11.23-19.57c-1.24-6.81,5.11-20.6,5.11-20.6l-1.36-18.38h3.06l1.36,17.7-5.11,21.11,11.23,14.64,20.08-19.4-3.06-38.81,8.17-34.38,7.49,5.79s-3.57,16.85-6.81,28.6c-3.23,11.74,2.38,35.4,2.38,35.4,0,0,21.28-19.57,32.34-28.26s26.21-9.19,26.21-9.19l2.19,4.18s-22.1,4.33-30.1,14.54-37.02,33.79-44.94,41.53c-7.91,7.74-20.77,31.32-20.77,31.32l-1.36,14.98c-2.13,4-5.79,6.13-5.79,6.13,0,0-2.55,30.47.34,36.43,2.89,5.96,4.43,13.62,4.43,13.62h-24.85Z"/>
    <path class="cls-4" d="m151.9,301.77s4.43-28.6,3.4-36.77-11.23-31.32-11.23-31.32l-10.54-32.34s-20.71-11.95-25.38-24.51-10.39-38.34-10.39-38.34l4.77-2.17,12.6,40.51,8.68,6.21-4.6-32.09-23.23-33.02-4.68-21.11h5.11l10.21,27.57,21.11,27.57,3.4,30.3,12.94,21.11s5.96,29.11,9.19,31.66c3.23,2.55,5.45,1.02,5.45,1.02l-5.79-36.77c-3.44-8.68-.94-18.84-8.68-27.06l11.58-21.85-4.94-24.96.51-10.21,4.94,7.49s5.11,27.57,5.79,32.76-12.13,14.05-10.89,17.96l10.89,34.38,3.06,26.55,7.83-14.98,9.87-14.98s-9.99-12.77-11.23-19.57c-1.24-6.81,5.11-20.6,5.11-20.6l-1.36-18.38h3.06l1.36,17.7-5.11,21.11,11.23,14.64,20.08-19.4-3.06-38.81,8.17-34.38,7.49,5.79s-3.57,16.85-6.81,28.6c-3.23,11.74,2.38,35.4,2.38,35.4,0,0,21.28-19.57,32.34-28.26s26.21-9.19,26.21-9.19l2.19,4.18s-22.1,4.33-30.1,14.54-37.02,33.79-44.94,41.53c-7.91,7.74-20.77,31.32-20.77,31.32l-1.36,14.98c-2.13,4-5.79,6.13-5.79,6.13,0,0-2.55,30.47.34,36.43,2.89,5.96,4.43,13.62,4.43,13.62h-24.85Z"/>
    <path class="cls-4" d="m151.9,301.77s4.43-28.6,3.4-36.77-11.23-31.32-11.23-31.32l-10.54-32.34s-20.71-11.95-25.38-24.51-10.39-38.34-10.39-38.34l4.77-2.17,12.6,40.51,8.68,6.21-4.6-32.09-23.23-33.02-4.68-21.11h5.11l10.21,27.57,21.11,27.57,3.4,30.3,12.94,21.11s5.96,29.11,9.19,31.66c3.23,2.55,5.45,1.02,5.45,1.02l-5.79-36.77c-3.44-8.68-.94-18.84-8.68-27.06l11.58-21.85-4.94-24.96.51-10.21,4.94,7.49s5.11,27.57,5.79,32.76-12.13,14.05-10.89,17.96l10.89,34.38,3.06,26.55,7.83-14.98,9.87-14.98s-9.99-12.77-11.23-19.57c-1.24-6.81,5.11-20.6,5.11-20.6l-1.36-18.38h3.06l1.36,17.7-5.11,21.11,11.23,14.64,20.08-19.4-3.06-38.81,8.17-34.38,7.49,5.79s-3.57,16.85-6.81,28.6c-3.23,11.74,2.38,35.4,2.38,35.4,0,0,21.28-19.57,32.34-28.26s26.21-9.19,26.21-9.19l2.19,4.18s-22.1,4.33-30.1,14.54-37.02,33.79-44.94,41.53c-7.91,7.74-20.77,31.32-20.77,31.32l-1.36,14.98c-2.13,4-5.79,6.13-5.79,6.13,0,0-2.55,30.47.34,36.43,2.89,5.96,4.43,13.62,4.43,13.62h-24.85Z"/>
  </g>
  <g id="frunze2-top">
    <path class="cls-2" d="m80.26,105.22c-.48-1.46-.97-4.07-.32-5.81.55-1.48,3.85-1.72,4.94-3.07s.73-4.36,2.08-5.24c1.52-1,3.89-1.23,5.44-1.27,1.89-.05,2.39,2.45,4.29,3.49,1.13.62,2.76,1.55,4.96,2.15,2.14.58,3.94,1.14,5.23,1.23,2.13.14,2.66-.42,4.1.75,1.02.83,3.06.87,3.58,2.25.5,1.3-.5,2.87-.52,4.26-.02,1.48-.19,2.48-.89,3.6-.74,1.21-1.16,2.76-2.67,3.49-1.26.61-2.89.5-4.5.8-1.43.27-2.89.95-4.47.99-1.5.04-3.11.56-4.64.41s-3.31.37-4.77.05c-1.55-.34-2.63-2.42-3.99-2.95-1.54-.6-3.2-.83-4.32-1.64-1.39-1.02-3.09-2.18-3.52-3.49Z"/>
    <path class="cls-2" d="m210.26,44.02c.08-1.37.9-2.03,1.9-3.3.84-1.07,1.2-2.56,2.47-3.47,1.16-.83,1.61-3.27,2.96-3.9s3.85,1.89,5.23,1.53c1.52-.4,2.59-2.82,3.94-2.82,1.67,0,3.56.34,4.63,1.1,1.46,1.04-.3,3.72.41,5.53.49,1.25,3.64,1.17,5.16,2.7,1.47,1.49,1.35,4.61,2.61,5.2,1.97.93,3.53.09,4.03,1.67.36,1.15.63,2.31-.1,3.7-.59,1.12-1.63,2.03-2.66,3.02s-1.79,2.27-2.96,2.85c-1.28.64-2.7,1.76-4.2,1.94-1.41.17-3.12.24-4.62.07s-2.8-1.33-4.22-1.76-2.3-2.02-3.63-2.64-2.17-1.81-3.37-2.59c-1.28-.83-2.15-1.66-3.16-2.61-1.15-1.08-3.82-.64-4.51-1.78-.84-1.4,0-3.09.08-4.43Z"/>
    <path class="cls-2" d="m134.07,127.86c-.46-1.54.93-3.79,1.32-5.53.36-1.58,1.22-3.14,2.14-4.61s2.76-1.88,4.03-2.96,1.83-3.57,3.4-4.07c1.93-.6,3.54,1.46,5.25,1.95s4.21-.91,5.88.13c1.46.91,1.8,3.82,3.43,4.85,1.48.94,2.89,2.54,4.62,3.35,1.58.74,3.85.53,5.72.99,1.67.41,3.63.59,5.59.66,1.81.06,3.63-.1,5.22-.33,1.81-.26,3.22-1.87,4.73-2.32,1.86-.55,3.78-.23,5.15-.72,2.44-.87,4.43-2.08,5.16-1.07.74,1.02,1.01,4.18-.36,6.52-.86,1.48-3.97,1.76-5.37,3.31-1.27,1.4-2.54,2.73-4.06,3.9-1.34,1.04-3.07,1.01-4.49,1.76-1.49.79-2.68,1.54-4.21,2.05s-2.91,1.27-4.51,1.55-3.05,2.81-4.66,2.88c-1.69.08-3.46-.34-5.05-.45-1.73-.11-3.47-.23-5-.48-1.79-.29-3.46-.85-4.87-1.21-2.14-.53-3.05-3.51-4-3.82-1.71-.55-4.27,1.29-5.9.64-1.76-.7-2.05-3.61-3.39-4.62-1.48-1.12-5.23-.6-5.77-2.36Z"/>
    <path class="cls-2" d="m74.62,168.55c1.74-1.05,2.93-1.95,3.96-2.89,1.57-1.42,1.98-3,2.87-4.05,1.09-1.29,3.56.04,5.55-.5,1.69-.46,2.68-1.54,4.02-1.15s3.31-.26,4.75.42c1.26.6,2.28,1.34,3.89,1.68,1.31.28,2.45.17,4.16.02,2.28-.2,4.63,1.39,6.11.75,2.67-1.15,4.16-3.77,5.29-2.87,1.03.83-.51,3.06-1.16,5.66-.42,1.67.92,4.23.04,6.11-.81,1.73-1.38,3.91-2.44,5.48-.5.75-1.85,2.36-3.47,4.22-1.03,1.19-3.68,1.18-5.11,2.46-1.26,1.13-2.89,1.72-4.42,2.72-1.45.95-2.81,1.69-4.47,2.36s-2.79,2.94-4.58,3.18c-1.69.22-3.47-1.03-5.3-1.3-1.8-.27-3.99.56-5.64-.15s-2.7-2.78-4.15-3.81c-1.54-1.08-3.08-2.04-4.26-3.3-1.36-1.45-3.03-2.62-3.77-4.05-1.05-2.01-.98-4.16-.47-5.5.55-1.43,1.75-2,4.22-2.96,1.24-.48,2.51-1.42,4.38-2.55Z"/>
    <path class="cls-2" d="m253.6,138.13c.25-1.61-.05-3.86,1.73-5.11,1.44-1.01,3.9-.1,5.78-.59s3.48-2.01,5.28-1.78c1.74.22,2.55,1.86,3.77,2.62,1.34.84,3.33.67,4.47,1.72s1.54,3.16,2.9,3.96c1.23.73,2.95,1.82,4.7,2,1.73.18,3.65-.51,5.04-.91,1.66-.48,3.35-1.13,4.57-1.8,1.91-1.04,3.22-3.32,4.22-2.53.98.77,1.52,3.45,1.16,6.01-.24,1.68-.21,4-1.02,5.87-.74,1.7-3.01,2.77-4.21,4.26s-2.53,2.84-4.17,3.76c-1.43.8-2.77,2.63-4.42,2.89s-3.5-.28-5.18-.44c-1.59-.16-3.1-1.35-4.71-1.82s-3.09-1-4.6-1.67-2.59-2.04-3.99-2.87-3.54-.66-4.81-1.63c-1.37-1.05-2.07-2.77-3.15-3.88-1.26-1.29-1.5-2.97-2.25-4.23-1-1.68-1.32-2.49-1.1-3.86Z"/>
    <path class="cls-2" d="m191.58,110.76c-.48-1.27.26-3.58,1.09-5.71.6-1.53,1.63-3.16,2.72-4.78.99-1.47,2.09-3.02,3.37-4.33s2.91-2.35,4.39-3.28c1.64-1.03,3.33-1.86,5.03-2.1,1.79-.25,3.77-.13,5.44.88.72.43,2.97.72,5.45,1.94,1.57.77,3.01,2.39,4.72,3.52,1.59,1.04,3.65,1.8,5,3.17s1.05,3.94,1.82,5.69c.63,1.44,1.26,2.9,1.71,4.52.48,1.7.52,3.45.87,4.87.73,2.98,3.38,4.88,4.05,3.2.06-.15-2.71,2.14-4.34,4.95-1.27,2.18-2.14,4.81-3.56,5.14-1.92.45-1.73-1.31-2.96-3.54-.63-1.14-1.78-2.5-3.23-4.08-.97-1.06-2.49-1.93-4.08-3.12-1.2-.9-2.38-2.22-4.04-3.17-1.45-.83-3.51.17-4.92-.29-1.57-.52-2.72-1.97-4.19-2.16-1.66-.21-3.23-.67-4.69-.66-1.77.02-3.35,1.13-4.68,1.16-2.21.04-4.48-.58-4.95-1.81Z"/>
    <path class="cls-2" d="m165.07,185.4c-.83-1.76-3.5-4.12-1.99-5.58,1.07-1.04,3.03-3.68,5.42-2.87,1.5.51,2.18,3.38,4.28,3.04,4.33-.69,8.59-6.02,9.78-5.06,1.14.92-3.5,6.41-4.85,8.88-1.05,1.93-1.9,3.79-3.94,5.15s-4.35,4.35-6.64,3.5c-2.77-1.03-1.61-6.08-2.07-7.07Z"/>
    <path class="cls-2" d="m25.34,125.79c-.28-1.61-1.22-3.13-.39-4.76.78-1.54,1.55-3.41,2.82-4.48,1.51-1.26,3.6-1.76,5.08-1.6,1.9.21,3.89,1.57,4.83,3.65.73,1.61.68,3.79,1.76,5.48.99,1.55,2.4,2.29,4.32,3.17,1.77.81,3.01,1.56,4.64,1.29s3.22-.9,4.92-1.47c1.58-.53,3.19-1.98,4.98-2.12,1.56-.12,3.18,1.57,5.03,2.2,1.44.49,2.68,1.47,4.11,2.51,1.34.98,3.5,1.23,4.42,2.62s.45,3.31.56,5.03c.1,1.52-.9,2.51-1.49,3.96s-.2,3.24-1.27,4.34-1.96,3.31-3.38,3.79c-1.67.56-3.1-1.94-4.77-2.6-1.26-.5-2.76-.69-4.43-1.74-1.21-.76-2.34-2.01-3.92-3.01-1.25-.79-3.76.19-5.32-.73-1.31-.77-1.52-3.77-3.08-4.61-1.52-.81-4.17.87-5.5.22-1.57-.77-2.83-1.74-4.15-2.33-1.65-.74-3.31-.88-4.59-1.44-1.78-.78-2.02-3.73-3.11-4.41-1.62-1.01-1.76-1.35-2.04-2.95Z"/>
    <path class="cls-2" d="m100.23,55.53c.49-2.08,3.7-5.58,6.22-7.22,1.92-1.26,6.11,1.12,8.71.32,2.35-.72,4.69-.01,7.25-.21s4.49-.13,6.93.33,6.2-2.27,8.29-.93c2.38,1.53,2.19,5.22,3.53,7.15s4.82,2.22,6.63,4.17c1.47,1.58,1.67,5.04,4.36,6.3,2.2,1.03,4.51,1.02,6.22,1.44,2.81.7,5.95.56,6.47,2.25.56,1.81-1.89,4.45-3.69,6.34-2.05,2.15-4.14,4.6-4.72,5.01-1.72,1.21-5.46-.89-7.71.15-2.02.93-2.68,5.65-4.97,6.27s-5.05-3.23-7.37-3.09-4.52,3.17-6.79,2.7-3.11-3.71-5.18-4.88c-1.95-1.1-5.61.03-7.83-2.57-1.41-1.65-.7-5.57-2.7-8.1-1.45-1.84-1.94-4.07-3.06-5.54-1.52-1.99-3.44-2.87-4.34-4.33-1.48-2.43-6.67-3.92-6.29-5.56Z"/>
  </g>
</svg>