<?xml version="1.0" encoding="UTF-8"?>
<svg id="Layer_2" data-name="Layer 2" xmlns="http://www.w3.org/2000/svg" viewBox="0 0 412.34 279.19">
  <defs>
    <style>
      .cls-1 {
        fill: #8dc63f;
      }

      .cls-2 {
        fill: #c49a6c;
        stroke: #754c29;
        stroke-miterlimit: 10;
      }

      .cls-3 {
        fill: #158040;
      }

      .cls-4 {
        fill: #006838;
      }
    </style>
  </defs>
  <g id="frunze1">
    <path class="cls-4" d="m4.92,155.7c-.66,2.3-3.41,3.02-3.88,4.95-.59,2.42-.67,4.7-.99,6.57-.46,2.66,2.2,4.97,2.2,6.68-.01,3.56-1.51,6-.31,6.68,1.37.79,4.62,1.34,6.76.28,1.56-.77,1.76-4.52,3.41-5.61s4.23-.72,5.73-1.56c2.24-1.26,2.12-.34,3.27.53,1.28.97,2.73,1.1,2,3.8-.52,1.93.9,4.39.58,6.41-.37,2.32-1.46,3.15-.14,4.65,1.21,1.37,1.84,2.75,3.98,2.47,1.56-.2,2.69-3.58,4.69-4.04,1.65-.38,4.36,4.35,6.28,4.12,1.72-.21,3.25-2.86,5.16-2.73,1.71.12,3.61.18,5.47.74,1.95.59,2.43,3.4,3.79,4.21,1.71,1.02,2.48,2.22,3.69,3.31,1.43,1.3,4.58.26,6.02,1.15s2.66,4.29,4.79,4.27c2.14-.03,2.9-4.6,4.43-5.48,1.64-.94,3.46-1.16,4.86-2.43s4.7.44,6.35-.49c1.54-.87,1.91-.94,4.05-.92,2.61.02,3.52-.58,5.18.59,1.79,1.27,3.4,2.71,5.2,4.01,1.64,1.19,4.35,2.11,6.93,2.25,2.28.13,4.16-2.21,6.07-3.1s5.04-.39,6.67-1.76c1.77-1.49,1.71-4.99,3.17-6.26,2.14-1.87,4.71-2.62,6.39-1.93,1.46.6.5,2.75.73,5.07.16,1.6,3.35,3.41,3.26,5.39-.08,1.79-2.15,3.58-2.22,5.38-.07,1.95-.34,3.9-.15,5.53.26,2.21,1.45,3.8,2.75,4.67,1.32.88,3.92,1.25,6.03-.59,1.23-1.08,2.79-2.61,4.25-4.31,1.17-1.36.7-4.32,2.01-5.95,1.16-1.46,1.1-4.01,2.35-5.6,1.18-1.5,3.65-2.06,4.9-3.61s3.15-2.45,4.44-3.94,2.85-2.69,4.19-4.1,1.44-4.2,2.86-5.5,3.79-1.78,5.31-2.92c1.62-1.21,4.07-.85,5.74-1.73,1.79-.95,2.49-4.8,4.32-5.27,1.92-.49,4.29,1.93,6.24,2.1,2.06.17,3.91.1,5.56.94s5.07.13,6.48,1.52c1.32,1.3,1.99,3.72,3.16,5.35,1.09,1.51.91,4.02,1.97,5.7s1.23,3.75,2.29,5.41.6,4.36,1.74,5.94,2.46,3.33,3.76,4.78,4.71.95,6.21,2.2,4.02.58,5.75,1.55c1.62.92,2.05,4.49,3.95,5.14,1.87.64,3.91,1.77,5.91,2.09s4.24-2.66,6.27-2.63,3.8-.13,5.81-.35,4.09.85,6.07.42,3.62-1.7,5.54-2.32,3.38-2.04,5.23-2.82,3.83-1,5.59-1.95,3.98-1.06,5.65-2.16,4.24-1.13,5.78-2.37,3.05-2.85,4.46-4.24,3.8-2.31,5.02-3.86,1.4-4.23,2.39-5.93,1.7-3.83,2.4-5.67c.69-1.82.52-3.98.91-5.94s.94-3.83,1.04-5.84,2.08-4.06,1.95-6.07-4.19-3.47-4.52-5.45.38-3.98-.11-5.92.35-4.19-.28-6.09-.36-4.13-1.11-5.98-3.99-2.56-4.84-4.36,1.14-5.02.2-6.77-1.77-3.65-2.79-5.35-2.8-3-3.9-4.64-4.4-1.74-5.57-3.34.37-5.29-.87-6.83-5.72-.37-7.02-1.86-3.48-2.03-4.84-3.46-.1-5.41-1.52-6.77-2.76-2.89-4.24-4.19-5.31.23-6.84-1-2.16-3.54-3.75-4.69-2.69-3.01-4.34-4.08-4.78.41-6.48-.56-2.22-4.04-3.97-4.9-3.84-.98-5.64-1.73-3.9-.51-5.76-1.13-2.66-5-4.56-5.47-4.31.94-6.24.64-3.95.01-5.9-.11c-1.99-.12-3.9,1.62-5.91,1.68s-4.11-2.45-6.12-2.22-3.46,3.34-5.44,3.72-3.95.06-5.91.56-5.08-3.19-7.01-2.59-3.23,3.17-5.13,3.85-3.45,2.2-5.32,2.95-3.28,2.47-5.12,3.27-5.06-1.45-6.88-.6-3.69,1.67-5.49,2.55-2.02,4.92-3.81,5.83-5.28-1.47-7.05-.54-3.25,2.46-5.02,3.39-3.54,1.91-5.3,2.85-2.5,3.87-4.26,4.8-2.96,3.03-4.72,3.95-4.22.62-5.99,1.52-3.84,1.32-5.63,2.18-2.89,3.39-4.69,4.2-4.42,0-6.24.76-3.78,1.42-5.63,2.09-4.16.13-6.04.68-3.24,3.72-5.15,4.12c-2.01.42-4.14.47-6.09.67s-4.21,1.64-6.17,1.57-3.46-4.94-5.4-5.33c-1.14-.23-4-.94-7.01-1.18-2.17-.17-5.05.87-7.27,1.33s-5.57,1.56-7.08,3.27c-1.33,1.5,1.43,4.73,1.26,6.66-.15,1.77-2.84,3.67-2.55,5.65.27,1.83,2.91,3.42,3.15,5.32s-.08,4.05-.27,5.92.42,4.68-.56,6.41c-.86,1.52-5.51-.04-7.52,1.38-1.43,1.02-.94,6.41-3.2,7.22-1.71.61-4.73-2.32-7.02-1.91-1.83.34-3.55,3.26-5.8,3.44-1.9.15-3.23-.31-5.45-.29Z"/>
    <path class="cls-4" d="m51.13,85.5c.75-1.76,6.98-1.15,7.73-2.86s-1.71-4.94-.91-6.62,1.34-3.69,2.24-5.31,5.27-1.17,6.32-2.7-1.5-6.03-.24-7.41,5.56.38,7.06-.8,3.32-.94,5.03-1.86c2.14-1.15,2.59-4.89,4.45-5.39,2.26-.6,4.32-3.16,6.34-3.24,2.2-.09,4.31.03,6.45-.07s3.42-.46,5.64-1.13c1.83-.56,5.2,2.29,7.27.98,2-1.26,4.94-1.72,6.19-3.08,1.54-1.67,1.7-4.71,2.56-6.45.94-1.92-2.84-5.71-2.1-7.61s6.76-1.21,7.97-2.99c1.06-1.56-.42-5.66,1.47-7.05,1.7-1.25,3.28-4.25,5.07-4.85s5.1,5.91,7.1,5.84,4.09-5.57,6.12-5.27c1.88.28,3.83,1.5,5.83,1.98,1.86.45,4.21-.48,6.18.05,1.86.5,3.69,1.19,5.65,1.7s3.64,1.14,5.61,1.56,3.71.49,5.71.78,3.56,1.99,5.57,2.12,3.76-.5,5.79-.56,3.52-1.56,5.53-1.83c1.9-.26,4.26,2.55,6.25,2.07,2.06-.49,4.5.73,6.1.14,1.99-.74,2.62-3.98,4.1-4.83,1.78-1.03,3.62-1.48,5.01-2.61,1.48-1.21,3.77-1.37,5.24-2.63,1.36-1.16,2.62-2.34,4.33-3.48,1.43-.96,1.05-5.74,2.96-6.64,1.55-.74,5.29,3.27,7.28,2.59,1.83-.62,2.87-3.9,4.78-4.36s3.74-1.72,5.69-2.02,4.03-.03,6-.18S250.48.01,252.45,0s3.81,4.27,5.77,4.39,4.01-1.6,5.96-1.36,3.81.84,5.75,1.19,3.54,1.93,5.44,2.39,4.79-2.66,6.67-2.1,2,6.35,3.84,7.01,5.42-3.21,7.22-2.44,3.65,1.68,5.39,2.54,1.18,6.05,2.87,7.01,3.38,1.63,5.01,2.7,6.41-2.34,7.97-1.17.32,5.92,1.8,7.19,6.22-.89,7.6.48,1.43,4.24,2.71,5.72-.69,5.46.46,7.04c1.21,1.66,2.93,2.62,3.91,4.24,1.06,1.75,6.38,1.18,7.2,2.89.88,1.84,1.45,4.03,2.11,5.82.7,1.9-2.42,5.03-1.92,6.88.53,1.94,5.28,2.9,5.66,4.79s-1.51,4.39-1.19,6.3-2.99,4.54-2.66,6.45,3.2,3.47,3.63,5.37-.28,4.25.35,6.12,5.16,2,6.05,3.79,1.78,2.94,2.96,4.61c1.09,1.53-.3,4.99,1.12,6.49,1.29,1.35,2.68,2.82,4.29,4.15,1.64,1.35,1.94,4.83,3.71,6.02s6.95-2.99,8.77-1.91,2.48,4.24,4.3,5.27c1.92,1.08,5.06,0,6.82,1.05,1.95,1.15,3.49,3.17,5.09,4.34,1.91,1.39,1.39,5.22,2.55,6.74,1.38,1.81,3.47,3.15,3.37,5.31-.09,1.91-.66,3.94-1.6,5.4-1,1.56-.42,4.18-1.36,5.56-1.07,1.59-6.8,2.23-6.26,4.08.6,2.05,4.72,2.96,7,3.77,1.81.65,3.86,1.72,6.04,2.27,2.05.52,5.7-2.51,7.56-1.55s1.58,5.16,2.75,7.07c1.11,1.8,5.23,3.43,5.19,5.75-.04,1.84-6.91,2.93-7.52,5.31-.47,1.83.6,4.16-.14,6.41-.62,1.85-.83,3.99-1.6,6.17-.7,2,2.96,5.45,2.3,7.26-.72,2-6.56,1.96-7.27,3.76-.77,1.96,1.07,4.89.24,6.65-.89,1.88.3,5.03-.73,6.72s-7.61-.56-8.92,1.02c-1.23,1.49.05,5.02-1.36,6.32s-1.51,4.43-3.08,5.56-4.56.2-6.25,1.14c-1.68.94-3.24,2.13-5.01,2.9s-2.49,4.77-4.33,5.37-5.03-3.2-6.91-2.75-3.25,3.74-5.15,4.03-4.41-4.98-6.32-4.84-3.61,2.02-5.51,2.01-3.65-1.32-5.53-1.49-3.81.68-5.66.35c-2.14-.39-3.47-2.33-5.34-2.91-2.07-.63-5.7,3.39-7.49,2.55-1.93-.91-1.66-5.44-3.33-6.56s-6.71,1.82-8.23.45-1.71-4.41-3.11-5.95-.03-5.32-1.35-6.94-2.06-3.49-3.35-5.16-3.02-2.84-4.32-4.49-4.49-1.62-5.86-3.24-2.14-3.55-3.58-5.1c-1.37-1.46-1.65-4.2-3.19-5.66-1.45-1.38-5.45-.02-7.08-1.38-1.53-1.28-2.29-3.58-4.01-4.83-1.61-1.18-3.58-1.92-5.38-3.06-1.79-1.14-2.6-3.75-4.27-4.66-1.85-1.01-5.63,2.42-7.4,1.66-1.89-.82-2.26-5.12-4.14-5.7s-4.6,2.4-6.59,2-3.27-3.67-5.33-3.93c-1.91-.24-3.76-2.07-5.86-2.24-1.9-.15-3.96.11-6.06,0-1.91-.1-4.12,4.53-6.23,4.44-1.91-.08-3.9-.43-6-.53-1.92-.08-3.64-6.03-5.74-6.14-1.92-.1-4.12,3.49-6.21,3.37-1.93-.11-4.06,1.57-6.14,1.43-1.93-.13-3.67-3.98-5.75-4.14-1.94-.15-3.89-.72-5.96-.9-1.94-.17-4.18,2.3-6.24,2.1-1.94-.19-3.72-2.53-5.78-2.75-1.94-.21-3.75-1.98-5.8-2.22s-4.25,2.14-6.29,1.89-4.33,2.41-6.37,2.14-3.8-1.71-5.83-2-3.1-6.23-5.13-6.53c-2.02-.3-4.62,3.52-6.55,3.21s-3.73-2.26-5.66-2.58-4.74,3.65-6.67,3.31c-2.02-.35-3.41-4.02-5.33-4.38-2.02-.37-3.58-2.83-5.49-3.2-2.02-.4-4.03-.44-5.93-.84-2.02-.43-3.58-2.51-5.47-2.93-2.02-.46-5.52,5.69-7.39,5.23-2.02-.49-3.54-2.83-5.4-3.32-2.02-.53-3.05-4.29-4.89-4.83-2.02-.58-4.7,1.42-6.51.83-2.02-.65-3.18-3.38-4.96-4.02-2.01-.73-3.27-2.73-4.99-3.45-2-.83-4.44.03-6.09-.78-1.98-.98-3.21-2.58-4.75-3.52-1.94-1.19-3.59-1.86-4.93-2.98-1.81-1.53-2.32-3.1-3.29-4.48-1.42-2.01-.75-3.4-1.16-4.97-.51-1.93-7.38-3.17-7.35-5.23.03-1.93,4.33-3.77,4.75-5.84.38-1.88,1.97-3.43,2.61-5.44.58-1.84.45-3.94,1.2-5.91.69-1.81-1.1-4.72-.3-6.65.75-1.8.01-4.32.83-6.24Z"/>
    <path class="cls-3" d="m44.58,145.95c.08-1.27,3.79-2.16,3.97-3.43s-2.27-2.96-2-4.21.16-2.66.51-3.89,1.75-2.17,2.18-3.37.46-2.6.96-3.77,3.86-.95,4.44-2.08-3.33-4.8-2.68-5.89,5.97.81,6.7-.23-1.71-4.45-.91-5.43,4.33.48,5.21-.43,1.49-1.86,2.45-2.67,2.1-1.05,3.14-1.74.94-3.15,2.06-3.69,2.29-1.03,3.5-1.36,2.28-2.72,3.54-2.8c1.73-.11,3.73-.63,4.76-.33,1.29.37,1.55,3.7,3.01,4.07,1.03.26,2.39.65,4.09.61,1.39-.03,2.91.24,4.11-.04,1.32-.3,3.05-.22,4.21-.77s1.71-2.59,2.78-3.36,1.5-2.22,2.49-3.13,3.26-.39,4.19-1.35-.19-3.79.74-4.75,4.59.97,5.56.04,1.79-1.64,2.8-2.52,1.87-1.46,2.95-2.25c1.03-.75.91-3.02,2.06-3.72,1.09-.65.94-3.82,2.16-4.41,1.3-.62,4.11,2.87,5.22,2.49,1.35-.46,2.07-1.67,3.25-1.86,1.33-.21,2.4.99,3.68.99s2.38.07,3.74.15c1.2.07,2.67-3.96,4.08-3.92,1.19.03,2.36-.34,3.77-.39,1.2-.04,2.57,2.09,3.97,1.95,1.2-.12,2.56.14,3.93-.07,1.2-.18,2.4-.93,3.76-1.19,1.2-.23,2.15-1.88,3.49-2.19,1.32-.31,2.84.5,4.06.18,1.31-.35,1.76-3.35,2.96-3.72,1.31-.4,4.26,4.55,5.44,4.15,1.3-.44,2.71-.63,3.87-1.06,1.3-.48,2.25-1.8,3.39-2.25,1.31-.52,2.59-.82,3.71-1.26,1.35-.53,1.29-4.5,2.4-4.85,1.45-.47,3.22,1.91,4.33,1.86,1.41-.07,1.01.89,2.06,1.74.96.78,5.75-.92,6.27.46.43,1.14-3.2,3.54-3.07,4.98.12,1.25,2.37,2.52,2.27,3.93-.09,1.28-3.47,2.1-3.73,3.46-.24,1.28.34,2.6-.06,3.9s1.25,3.22.73,4.47-2.6,1.7-3.24,2.88-1.33,2.19-2.09,3.28c-.75,1.08-1.51,1.93-2.32,2.84-.87.98-1.09,2.42-2.02,3.23-.98.85-.84,3.29-1.88,3.98s-3.53-.92-4.66-.35-.94,4.3-2.12,4.77-3.34-1.59-4.55-1.21-1.7,3.32-2.93,3.66-3.73-4.18-4.97-3.86-1.67,3.58-2.91,3.91-2.46.5-3.68.87-2.12,1.47-3.33,1.89-1.77,2.03-2.95,2.54-3-.75-4.14-.15-1.9,1.57-2.98,2.27-1.42,2.08-2.45,2.87-1.43,1.86-2.39,2.74c-.9.83-5.12-1.62-6.01-.66-.93,1.01,1.2,4.44.5,5.36-.84,1.1-3.1.98-3.67,1.98-.67,1.18-1.49,2.22-1.93,3.32-.47,1.2,2.49,3.42,2.13,4.62s-2.6,1.82-3,3.07c-.36,1.12.68,3.02.14,4.26-.46,1.07-1.13,2.41-1.79,3.61-.56,1.02-4.34.27-5.09,1.4-.65.97.39,3.26-.44,4.34-.74.98-3.81.09-4.63,1.06s1.21,4.41.34,5.33-3.01.6-3.92,1.48-1.87,1.66-2.8,2.5-2.73.63-3.69,1.42-1.8,1.67-2.8,2.43-1.49,2.17-2.51,2.88-.52,3.87-1.58,4.53-4.71-2.99-5.79-2.38-1.23,2.9-2.34,3.45-1.43,3.02-2.56,3.51-2.85-.17-4.02.24-3.24-2.16-4.42-1.84-1.3,5.82-2.51,6.03-3.03-2.86-4.25-2.77-2.61,3.05-3.84,2.99-1.86-5.46-3.08-5.69-3.88,4.66-5.05,4.23-.28-5.36-1.38-5.99c-1.13-.66-1.66-1.41-2.62-2.23s-4.67,1.15-5.49.17-1.8-2.15-2.48-3.23-.83-2.65-1.38-3.81,1.06-3.2.64-4.4-1.91-2.06-2.22-3.29.04-2.64-.18-3.88c-.24-1.31.41-2.64.26-3.86-.16-1.35-4.36-2.3-4.43-3.5-.09-1.44,5.22-2.91,5.21-4.02-.01-1.99-4.26-3.45-4.23-3.92Z"/>
    <path class="cls-3" d="m195.58,131.57c-.52-1.06,1.76-2.14,1.94-3.59.14-1.15-.11-2.03.41-3.36.44-1.12-1.05-3.15-.38-4.36.6-1.08.78-2.57,1.54-3.68.7-1.03,3.49-.59,4.31-1.64.78-1-.11-3.39.76-4.38s1.45-2.23,2.36-3.17,1.6-2.15,2.55-3.04,3.88.48,4.87-.35.37-3.7,1.4-4.47,3-.31,4.07-1.02,3.24.46,4.35-.17,1.74-1.98,2.89-2.51c1.22-.56,1.66-2.8,2.84-3.19,1.28-.42,2.46-1.58,3.68-1.78,1.34-.22,2.94-.73,4.17-.65,1.33.09,2.81,1.2,3.98,1.69,1.24.51,3.21.68,4.11,1.54s-.83,3.96-.16,5.08c.64,1.06.59,2.25,1.11,3.46s4.3.96,4.77,2.16,1.23,2.18,1.73,3.36-2.68,4.19-2.06,5.3,3.62.79,4.44,1.77.91,2.78,1.98,3.54c.99.7,3.31-1.31,4.58-.83,1.21.46,1.72,1.45,2.79,1.56,1.23.13,2.5,2.95,3.62,2.77s2.57-.22,3.71-.55,2.25-.26,3.43-.56c1.09-.28,1.83-1.22,3.06-1.36,1.09-.13,1.97.06,3.23.12,1.09.05,2.72-3.48,3.96-3.22,1.21.25,1.81,2.95,2.93,3.35s3.52-1.68,4.58-1.12,1.37,2.8,2.36,3.48.13,3.69,1.05,4.47,1.81,1.33,2.65,2.18,2.46.91,3.22,1.82c.8.96,3.64.3,4.34,1.25.75,1.03.44,2.79,1.06,3.76.71,1.1.13,2.87.68,3.83.71,1.24,2.97,1.4,3.42,2.25.59,1.11,2.05,1.93,2.6,3.13s.4,2.7.89,3.92-.92,3.09-.5,4.33,3.87,1.55,4.22,2.79.41,2.7.69,3.95.34,2.72.54,3.97c.22,1.31.43,2.74.54,3.99.11,1.34-3.06,2.77-3.08,4.01-.03,1.37,1.34,2.72,1.13,3.91-.25,1.37-1.24,2.35-1.77,3.42-.61,1.23-2.14.75-3.17,1.47-1.15.8-1.18,2.97-2.49,2.93-1.19-.03-1.63-2.72-2.97-3.22-1.13-.41-3.03,1.05-4.29.45-1.11-.54-1.91-1.88-3.13-2.48-1.13-.55-2.95.24-4.18-.3-1.16-.51-2.06-1.8-3.32-2.24s-2.77.38-4.07.09-2.26-2.25-3.59-2.37c-1.26-.12-2.76-1.52-4.1-1.47-1.26.06-2.04,4.81-3.37,5.05-1.43.26-3.77-3.49-4.95-3.08-1.36.47-1.89,2.94-3,3.56-1.22.69-3.16.35-4.18,1.15-1.08.84.15,4.37-.84,5.25s-2.81.93-3.87,1.77-2.34,1.46-3.55,2.15c-1.1.63-2.09,2.24-3.45,2.7-1.18.4-3.03-.89-4.47-.66-1.22.2-2.54-2.04-3.79-2s-2.34,1.64-3.59,1.54-2.54.55-3.77.32-2.35-.82-3.55-1.16-3.24,1.61-4.4,1.18-1.63-2.79-2.75-3.32-.99-3.27-2.05-3.89-3.14.44-4.14-.28-3.57.28-4.48-.53-.78-3-1.59-3.91-2.36-1.53-3.03-2.54c-.7-1.06-1.87-2.17-2.36-3.28s.9-3.12.66-4.32c-.27-1.35.1-2.62.17-3.87.07-1.33,1.73-2.13,2.06-3.37s-1.9-3.35-1.4-4.54,1.17-2.4,1.69-3.56c.56-1.24,2.94-1.74,3.33-2.92.43-1.3-2.73-2.93-2.74-4.19s3-3.06,2.33-4.31c-.66-1.21-3.63-.05-4.64-.76s-1.57-1.37-2.82-1.76-1.97-2.52-3.24-2.74-2.45-1.07-3.67-1.3c-1.36-.25-2.51-.15-3.59-.63-1.24-.55-2.7-.53-3.28-1.71Z"/>
    <path class="cls-3" d="m226.12,33.4c1.26-.3,2.22-1.05,3.39-1.39,1.24-.36,3.06,1.5,4.21,1.1,1.22-.42,1.71-2.5,2.83-2.95,1.2-.48,4.71,4.44,5.81,3.93,1.18-.54,1.14-3.7,2.22-4.25,1.16-.59,3.83,1.61,4.88,1.02,1.14-.63.55-4.31,1.6-4.91,1.14-.65.24-4.81,1.29-5.39,1.14-.64,4.8,3.51,5.87,2.98,1.17-.58,1.05-4.08,2.19-4.47,1.21-.43,3.1,1.92,4.32,1.75s2.53-3.23,3.82-3.07c1.17.14,1.98,2.79,3.25,3.24,1.36.48,3.91-1.33,4.87-.68,1.09.73-.5,4.55.35,5.52.79.9.25,2.64,1.06,3.77.68.95,2.47,1.26,3.32,2.38.71.94,2.28,1.4,3.18,2.46.76.9,3.37.23,4.33,1.23.83.86.25,3.22,1.26,4.15.88.82,4.1-.97,5.14-.09.97.82-1.24,5.44-.33,6.14,1.01.78,1.22,2.77,2.16,3.43,1.05.73,2.17,1.61,3.14,2.21,1.1.67,4.13-1.98,5.14-1.45,1.14.61,1.97,1.64,3.01,2.13,1.16.54,3.05-.75,4.09-.29,1.16.51,1.33,3.03,2.38,3.54,1.11.53,1.78,1.52,2.8,2.17s1.89,1.07,2.82,1.92c.83.76,3.23.15,4.05,1.17.77.97,3.67.84,4.3,1.91s-4.6,5.2-4.09,6.33.28,2.16.66,3.34,7.06.62,7.33,1.83-.9,2.86-.74,4.09-4.02,2.84-3.95,4.07,2.71,2.31,2.71,3.54-2.93,2.27-3.02,3.5,2.43,2.65,2.27,3.86,3.08,3.13,2.84,4.32-6.87.97-7.18,2.14c-.33,1.23.65,2.63.26,3.75-.43,1.22-1.58,1.86-2.07,2.93-.55,1.21,2.49,4.13,1.88,5.1-.73,1.17-4.24-.25-5.02.52-1.04,1.02-.27,4.27-1.33,4.42-1.21.17-2.71-.84-3.76-1.78-.79-.71-2.17-1.41-2.94-2.59-.62-.94-1.9-1.75-2.54-2.92-.56-1.02.8-3.17.19-4.32-.56-1.05-1.25-2.09-1.86-3.21-.58-1.06,1.38-3.65.74-4.74s-3.27-.98-3.96-2.03.46-3.48-.29-4.48-1.46-2.32-2.28-3.26-4.62.81-5.52-.05.02-3.95-.97-4.72-5.19,3.26-6.26,2.61-1.31-2.1-2.45-2.62-2.52.64-3.72.25c-1.29-.42-1.42-3.68-2.51-3.87-1.31-.22-2.42-1.06-3.56-1.04-1.24.02-2.04,2.8-3.25,2.99-1.14.18-2.37-.14-3.64.09-1.11.2-2.85-3.16-4.16-2.99-1.11.14-2.16.77-3.48.85-1.12.06-2.29,3.9-3.6,3.89-1.14-.01-2.25-3.72-3.55-3.81-1.32-.09-2.32-1.71-3.52-1.86-1.31-.16-3.14,3.64-4.32,3.42-1.3-.25-2.02-2.79-3.18-3.11-1.27-.35-1.46-3.27-2.59-3.69-1.23-.45-3.76,2.75-4.86,2.24-1.18-.55-3.67,1.31-4.74.71s-1.74-2.29-2.79-2.95-.95-3.23-2.01-3.91-4.19,1.98-5.27,1.31,1.36-7.22.23-7.84-3.83,1.84-5.01,1.29c-1.11-.51-2.37-.66-3.6-1.1-1.14-.41-1.47-3.79-2.74-4.14-1.16-.32-2.48-1.15-3.77-1.4-1.18-.23-3.12,3.45-4.43,3.28-1.29-.16-2.24-4.21-3.45-4.29-1.3-.08-2.75,5.47-3.97,5.47-1.3,0-2.49-1.42-3.7-1.34-1.29.08-3.03-4.46-4.25-4.32-1.28.15-2.7.17-3.91.37s-2.3,1.92-3.52,2.14-2.42.73-3.64.94-2.35.78-3.59.94-2.21,2.77-3.48,2.85-2.48-2.86-3.76-2.89-2.68,3.23-3.96,3.07c-1.2-.15-2.36-1.24-3.64-1.52-1.17-.26-1.71-2.83-2.96-3.23-1.15-.36-3.77,3.23-4.99,2.74-.61-.24-.86-3.13-2.34-3.8-1-.46-1.92-1.31-3.03-1.92-1.05-.58-2.51-.51-3.47-1.19-1.05-.75-.51-2.85-1.21-3.69-.89-1.04-.87-.8-.77-1.91.1-1.15-1.72-3.15-.52-4.1.88-.7,1.32-3.43,2.64-4.03,1.09-.5,3.28.89,4.57.45,1.17-.39,2.78.34,4.06,0s2.59-.17,3.86-.45,2.04-3.01,3.29-3.26,2.88,1.03,4.11.82c1.34-.23,2.96,1.71,4.16,1.53,1.42-.22,2.05-4.78,3.16-4.94,1.31-.19,3.08,3.13,4.3,2.98,1.32-.17,2.48-1.12,3.7-1.24,1.33-.14,2.33-3.74,3.55-3.84,1.33-.1,2.77,1.17,3.99,1.11,1.34-.06,2.71,1.92,3.92,1.91,1.35-.01,2.59,1.24,3.81,1.27,1.34.03,2.42,2.56,3.64,2.63,1.34.08,2.5.23,3.72.33,1.32.12,2.9-3.39,4.13-3.28,1.29.12,2.75-2.4,4.01-2.31s2.31,4.24,3.6,4.27,2.65.83,3.97.77c1.22-.06,2.15-4.32,3.48-4.48,1.2-.15,2.32-.41,3.65-.66,1.19-.22,2.2-1.03,3.51-1.34Z"/>
    <path class="cls-3" d="m353.35,134.26c-1.25.01-2.34.65-3.55.99s-2,1.19-3.13,1.78-2.22.83-3.25,1.6c-.97.73-2.29,1.05-3.2,1.94s-2.41,1.19-3.23,2.16-1.5,2.05-2.23,3.08-2.04,1.72-2.69,2.79-.57,2.61-1.16,3.72-.99,2.33-1.51,3.46-.6,2.48-1.06,3.63-1.08,2.29-1.46,3.46-1.93,2.11-2.23,3.29c-.32,1.24,1.67,2.99,1.45,4.18-.24,1.28-1.07,2.37-1.18,3.56-.12,1.32-1.03,2.58-.98,3.74.06,1.36-.35,2.91-.05,4,.37,1.34,2.41,1.89,3.17,2.72,1.05,1.15,1.35,3.29,2.65,4.03,1.15.65,1.51.89,2.36,2.47.62,1.16,1.15,1.49,1.16,2.62s1.37,2.42,1.03,3.59c-.32,1.12-2.73,1.6-3.11,2.76s1.73,2.94,1.54,4.13.51,1.96.72,3.19c.2,1.2-1.5,2.97-.89,4.11.57,1.06,1.29,2.3,2.15,3.28.8.91,3.2.17,4.19.97s1.38,2.14,2.47,2.79,1.92,1.68,3.07,2.18,2.81-.78,4.01-.45,2.04,2,3.26,2.13,2.45-.3,3.67-.41c1.27-.11,2.2-.89,3.4-1.27s3.3,1.32,4.42.71,1.61-2.3,2.62-3.09,1.68-1.85,2.58-2.77.83-2.48,1.62-3.5,2.78-1.05,3.47-2.13-.19-2.98.41-4.1,1.51-1.97,2.03-3.13,3.46-1.33,3.91-2.52-.29-2.84.08-4.05.2-2.58.49-3.81-.07-2.58.14-3.82,2.42-2.26,2.55-3.5.27-2.64.3-3.88c.03-1.23-2.1-2.47-2.16-3.71s2.07-2.67,1.93-3.91-.73-2.47-.95-3.69-.5-2.49-.8-3.69-1.93-2.07-2.29-3.25-1.49-2.08-1.92-3.23-.11-2.6-.6-3.72-.74-2.4-1.3-3.49-2.12-1.64-2.75-2.68-.41-2.68-1.11-3.67-1.46-2.05-2.25-2.97c-.82-.97-1.17-2.42-2.04-3.25-.92-.88-2.94-.41-3.91-1.12-1.03-.75-1.91-1.49-2.98-2.02-1.14-.57-2.38-.17-3.55-.47s-2.09-1.77-3.33-1.76Z"/>
    <path class="cls-3" d="m82.55,69.61c.49-.63,1.26-1.57,2.25-2.72.7-.81,1.28-1.87,2.18-2.79.8-.81,1.73-1.51,2.66-2.31s1.17-2.35,2.16-3.03,2.43-.61,3.49-1.14,1.97-1.57,3.11-1.86,2.43-.35,3.62-.33,2.52-.14,3.69.26c1.12.38,1.61,2.08,2.63,2.76s2.8.38,3.64,1.25.81,2.47,1.45,3.48,1.86,1.8,2.26,2.91,1.07,2.42,1.17,3.58c.1,1.22-1.3,2.35-1.63,3.48-.37,1.28-.29,2.69-1.16,3.64-.81.88-1.84,1.78-3.05,2.46-1.03.58-2.55.31-3.85.8-1.12.43-1.98,1.84-3.29,2.24-1.16.36-2.66-.2-3.95.15-1.18.33-2.49.39-3.78.74-1.08.29-2.03,1.32-3.19,1.61s-2.16,1.07-3.29,1.32-2.35.48-3.47.65c-1.21.19-2.45.38-3.54.42-1.29.05-2.43-.91-3.44-1.14-1.28-.3-1.85-.95-2.47-1.87-.62-.91-1-1.68-.84-2.93.13-1.05-.53-2.51-.06-3.63.44-1.04,2.15-1.52,2.72-2.51.61-1.05.52-2.5,1.12-3.36.89-1.28,2.5-1.65,2.87-2.14Z"/>
    <path class="cls-3" d="m154.35,146c.92-.97,3.48-.44,4.21-1.38.82-1.06.03-3.18.66-4.19.71-1.14,1.52-2.07,2.05-3.13.61-1.22.65-2.53,1.11-3.62.54-1.27,1.07-2.44,1.55-3.49.58-1.28,1.37-2.55,2.13-3.41.81-.94,2.21-1.95,3.57-2.3,1.18-.31,2.77.14,4.1.36,1.2.19,2.62.41,3.84.94,1.13.49,2.61.79,3.7,1.52s1.5,2.36,2.46,3.22,1.39,2.19,2.19,3.15,2.28,1.55,2.89,2.62c.67,1.17.97,2.49,1.28,3.65.35,1.31-.01,2.54-.22,3.74-.24,1.37-.69,2.23-1.57,3.11-.81.8-1.13,2.67-2.38,3.31-1.02.52-2.91-.48-4.16.07-1.08.48-1.84,1.84-3.05,2.42-1.07.52-2.03,1.34-3.18,2-1.04.6-2.15,1.11-3.24,1.87-.98.69-1.69,1.74-2.69,2.6-.92.78-2.77.62-3.7,1.57-.89.91-1.26,2.25-2,3.15-.81.99-1.62,1.9-2.28,2.87-.72,1.06-1.71,1.91-2.28,2.92-.63,1.12-.09,2.77-.58,3.81-.56,1.18-2.67,1.57-3.12,2.62-.52,1.23.48,3.01.02,4.01-.59,1.26-1.28,2.46-1.97,3.26-.83.96-2.37.2-3.69.34-1.14.13-1.9.06-3.13-.46-1.05-.44-3.02.46-4.05-.34-.92-.72-.85-2.66-1.7-3.6-.8-.89-2.82-.93-3.51-1.96s-.79-2.49-1.31-3.59.27-2.69-.05-3.85-.81-2.21-.87-3.4c-.06-1.26-1.53-2.72-1.21-3.88.38-1.35,1.27-2.72,2.06-3.6s2.65-.66,3.81-1.34c.99-.58,1.43-2.41,2.63-3.02,1.03-.53,2.46-.42,3.62-1.09,1.01-.59,2.74-.25,3.83-1.02.95-.68,1.46-2.12,2.45-3,.88-.78.86-2.51,1.77-3.48Z"/>
  </g>
  <g id="radacina1">
    <path class="cls-2" d="m184.24,277.16s15.45-5.36,15.06-8.43c-1.66-5.62-1.28-36-1.28-36,0,0,.51-4.21-2.43-10.34s-20.62-13.53-20.62-13.53l-8.35-6-22.72-1.79-16.85,7.91-22.47-2.3-31.91-15.32,4.34-1.28,27.32,12c4.6,2.81,19.15,2.81,19.15,2.81,0,0,19.53-8.3,24.51-9.96,4.98-1.66,17.62,1.53,17.62,1.53l11.74,2.55s4.47,3.57,8.17,5.62,7.66-.77,7.66-.77l-4.34-10.47-27.32-21.96-12,5.87-34.47.51-16.85-13.79,3.57-4.34s13.28,11.49,14.04,11.49,29.87,1.02,29.87,1.02l16.85-7.91,27.13,17.16s-.58-14.48-4.72-21.45c0,0-8.79-17.69-10.92-21.07l6.38-7.84,16.09,32.17,11.74-26.04,6.38-.51-15.32,33.19,4.6,31.91s3.32,1.91,4.6,1.02c.47-.33,4.06-13.85,7.84-17.27,3.78-3.41,5.07-11.9,7.52-17.73,4.69-11.16,8.64-20.66,8.64-20.66l8.17,2.3-13.53,43.4-12,21.7,1.02,9.7s5.74-7.66,8.43-6.13l7.4-7.4s-2.3-2.55-2.3-3.32-.77-11.23-.77-11.23c0,0,4.09-9.19,4.85-9.19s-1.02,17.11-1.02,17.11l1.02,2.04,9.7-23.23h5.36l-13.02,33.45s-16.34,11.62-18.38,16.85-.77,22.47-.77,22.47c0,0,1.4,16.47,4.34,18.13,2.94,1.66,20.43,4.85,20.43,4.85l-57.19-1.53Z"/>
    <path class="cls-2" d="m218.45,187.67c-1.49-.21-4.12,5.06-3.06,6.13.65.66,3.13.13,4.09-1.79s-.1-4.21-1.02-4.34Z"/>
  </g>
  <g id="frunze1-top">
    <path class="cls-1" d="m83.02,162.99c.16-1.23-3.28-3.23-3.01-4.86.22-1.33.36-2.94.7-4.45.31-1.36,3.48-2.11,3.92-3.55.41-1.35.99-2.65,1.55-4.03s3.18-1.48,3.88-2.78-3.26-5.41-2.4-6.61,3.54-1.11,4.55-2.19.73-3.78,1.89-4.71,3.01-1.27,4.3-2.03c1.31-.77,4.03,1.05,5.45.46s2.4-2.36,3.88-2.78,3-1,4.51-1.24,3.05-2.34,4.57-2.42,3.06,4.94,4.56,5.05c1.58.11,3.17-1.53,4.62-1.22,1.57.34,2.75,1.26,4.1,1.82,1.5.62,4.75-1.55,5.9-.66,1.27.98.2,4.41.93,5.71.68,1.23,4.29,1.88,4.48,3.28s-5.63,2.83-5.76,4.24,1.17,2.72.88,4.07-.22,2.83-.55,4.11c-.17.66,3.26,3.39,2.44,5.36-.45,1.08-5.42.35-6.18,1.8-.58,1.12.95,3.52.14,4.84-.67,1.11.4,3.58-.46,4.83-.85,1.24-6.52-.9-7.37.3s.69,4.13-.21,5.3-.29,3.71-1.28,4.82-3.57.74-4.68,1.75-2,2.18-3.24,3.07c-1.17.84-.92,4.34-2.27,5.09-.74.41-4.07-2.29-5.91-1.41-1.22.58-1.65,3.63-3.17,4.2-1.37.51-4.19-3.68-5.68-3.32s-2.35,2.14-3.83,2.23-2.41-1.02-3.85-1.35-2.48.28-3.71-.65c-1.13-.86-.42-2.15-1.11-3.34s-5.21-.62-5.55-2.01c-.32-1.31,3.02-3.2,2.93-4.61s-4.88-2.73-4.82-4.12,1.96-2.8,2.1-4.14c.15-1.47,2.6-2.59,2.77-3.85Z"/>
    <path class="cls-1" d="m101.17,72.27c-.07-1.36-.62-3.43.22-4.87.68-1.17,1-3.46,2.16-4.59,1.01-.98,3.04-1.4,4.33-2.29,1.19-.82,3.33-.35,4.69-1.04s3.41.78,4.83.27,2.5-1.13,3.96-1.44,2.77,1.21,4.25,1.11,2.59-2.09,4.06-1.92c1.69.2,2.95.07,4.26.55,1.53.56,3.22.25,4.47,1.03s2.24,2.12,3.5,3.02,1.16,4.33,2.58,5.08c1.26.67,4.86-3.88,6.47-3.43,1.34.38,2.29,2.22,3.98,2.38,1.63.15,3.16,2.26,4.52,2.17,1.62-.11,3.62,1.09,4.97.8,1.57-.34,2.16-4.56,3.52-4.87,1.51-.35,2.96,4.09,4.44,4.16,1.36.06,1.09.29,2.62,1.03,1.45.71,2.59.12,3.85,1.31s5.09-.17,5.97,1.24c.93,1.48-3.19,4.49-2.82,6.04.43,1.75,6.33,3.07,5.81,4.57-.47,1.35-.82,4.78-2.07,5.78-1.05.85-5.32-2.87-6.82-2.25-1.28.53-2.53.6-4.07.98-1.37.34-1.86,5.82-3.4,6.06-1.42.21-3.29-1.72-4.81-1.59-1.45.12-3.03-1.12-4.55-1.08s-2.98,4.28-4.48,4.27-2.95-3.65-4.44-3.71-3.07.94-4.55.82-3.18,1.12-4.64.95-2.23-6.13-3.67-6.34c-1.51-.22-3.37,2.23-4.78,1.96-.9-.17-2.57.32-4.48-.08-1.28-.27-3.35,1.91-4.91,1.53-1.35-.32-1.86-4.47-3.33-4.88-1.39-.38-4.05,3.16-5.46,2.71s-2.6-2.01-3.96-2.53-.16-6.99-1.44-7.6c-1.39-.67-3.83,1.34-4.98.57-1.34-.89-3.2-.82-4.05-1.84-1.03-1.23-1.64-2.63-1.71-4.04Z"/>
    <path class="cls-1" d="m167.44,143.37c.65.95,1.24,3.26,3.03,3.52,1.24.18,3.01.24,4.6.09,1.33-.12,2.47-2.43,3.94-2.78,1.34-.32,3.4,1.39,4.79.89s2.64-1.45,3.94-2.09,2.65-1.42,3.85-2.2,1.59-2.76,2.65-3.7,1.43-2.45,2.3-3.57,2.27-1.82,2.87-3.12c.1-.22,1.07-1.58,1.54-3.43.3-1.16-.56-2.48-.6-3.72-.04-1.32.66-2.67-.18-3.58-.86-.94-2.23-1.48-3.75-1.58-1.22-.08-2.79-.65-4.23-.34-1.27.27-2.15,2.24-3.45,2.72s-2.55.84-3.74,1.42c-1.29.63-2.02,1.95-3.08,2.61-1.22.76-4.04-.67-5.2.26s-2.39,1.96-3.43,2.98-1.71,2.63-2.61,3.73c-.99,1.19-2.18,2.32-2.91,3.48-.87,1.39.52,3.71.12,4.92-.58,1.75-1.13,2.5-.44,3.51Z"/>
    <path class="cls-1" d="m218.09,86.05c-.6-1.25,2.83-3.73,2.8-5.27-.03-1.36-1.61-2.83-1.25-4.31.33-1.35,1.09-2.64,1.69-4.02.57-1.29,2.21-1.97,2.99-3.23s-1.21-4.5-.28-5.63,5.59,1.32,6.65.34-.68-5.44.5-6.24,2.83-1.63,4.14-2.18,3.83,3.39,5.24,3.18c1.3-.19,1.6-.41,3.16.02,1.22.34,4.39-3.92,5.84-3.2,1.16.58.43,4.96,1.77,5.78,1.13.69,4.77-2.3,6.05-1.45,1.12.75,1.32,3.07,2.57,3.94,1.11.78.1,4.67,1.32,5.55,1.11.8,2.75.95,3.97,1.83,1.12.81,5-2.09,6.21-1.21,1.41,1.03,2.57,2.26,3.76,3.16,1.42,1.08.48,4.96,1.62,5.87,1.46,1.16,5.35-.96,6.41-.05,1.54,1.33,1.35,4.1,2.2,4.99,2.56,2.67-.66,3.5-.79,3.98-.32,1.16.98,2.53-.69,3.17-1.13.43-2.67-.45-4.25-.2-1.29.2-2.32,4.21-3.83,4.31-1.35.09-2.88.32-4.35.35-1.38.03-2.85-3.03-4.29-3.04s-2.81-.16-4.23-.2-2.74-2.54-4.15-2.6-3.08,5.75-4.47,5.69c-1.57-.06-3-2.39-4.45-2.45-1.58-.07-3.21,2.17-4.65,2.1-1.59-.08-3.09-.98-4.52-1.08-1.61-.1-2.89-3.23-4.3-3.36-1.63-.15-3.29,1.1-4.67.89-1.66-.25-3.26-.31-4.57-.68-1.65-.47-4.33.6-5.46-.11-1.37-.87-3.01-3.3-3.66-4.65Z"/>
    <path class="cls-1" d="m298.75,141.91c-.53-.97-1.32-1.49.97-4.21,1.28-1.52,3.29-2.66,5.16-4.36,1.61-1.46.86-6.18,2.77-7.58s5.87.42,7.85-.72,2.62-5.77,4.68-6.55c2.26-.85,5.93,5.22,8.06,5.04,2.4-.21,3.53-1.88,5.55-.95,2.37,1.09,3.48,1.79,4.72,3.87,1.17,1.96,6.3,2.04,7.41,4.32,1.01,2.08-2.59,7.19-.92,9.11,1.44,1.66,5.32,1.12,7.74,2.36,2.11,1.09,4.55-.91,6.55-.53,2.4.45,4.1,7.37,6.02,7.36,3.48-.04,5.63-4.01,5.96-2.78.32,1.23-.08,5.34-3.19,7.42-1.89,1.26-5.55.36-8.16,1.14-2.35.7-4.84,1.48-7.44,1.32-3.05-.19-7.4,1.98-9.5.7-2.23-1.37-1.53-7.06-3.56-8.95-1.84-1.72-5.59-1.02-7.97-2.58-2.02-1.33-2.16-7.72-5.02-8.57-2.56-.76-6.01.63-8.36.57-2.66-.07-5.8-1-8.09-.54-2.72.55-5.18,2.53-7.24,3.27-3.89,1.39-3.38,2.96-3.99,1.85Z"/>
    <path class="cls-1" d="m304.49,184.85c.19-1.46,3.1-2.49,4.08-3.87.85-1.19.57-3.94,1.87-4.98,1.17-.94,3.64-.39,5.09-1.14,1.36-.71,3.13-.4,4.65-.9s2.82-1.06,4.38-1.3,3.07-3.18,4.63-3.14,3.55.45,5.07.81,1.81,4.19,3.2,4.93c1.23.65,3.56-.42,4.65.51s2.99,1.32,3.89,2.42-.06,3.62.64,4.83,1.05,2.55,1.52,3.85c.49,1.37,2.39,2.39,2.57,3.75.2,1.46-1.07,2.94-1.28,4.28-.23,1.43-1.43,2.11-2.19,3.28-.85,1.32-.74,3.26-2.03,4.03s-2.4,3.04-3.87,3.4c-1.55.38-3.51-.09-4.9-.01-2.07.12-3.7-3.42-4.47-3.47-1.41-.1-3.05,2.18-4.48,1.87s-2.49-1.64-3.85-2.12-3.77,1.35-5.05.72-1.68-3.16-2.86-3.92c-1.24-.8-1.57-2.62-2.62-3.53-1.14-.99-2.15-1.71-2.99-2.78-.95-1.2-.59-2.54-1.07-3.78-.55-1.41-4.77-2.33-4.6-3.71Z"/>
    <path class="cls-1" d="m227.04,138.09c-1.12,1.1-2.45,1.7-3.02,3.27s-2.35,3.06-2.28,4.63c.07,1.76,1.74,3.12,2.73,4.29,1.01,1.18,1.94,2.45,3.54,2.55,1.2.07,2.66.65,4.35.64,1.27,0,2.63-.79,4.24-.62,1.29.14,2.56.73,4.1,1.1,1.87.45,3.44.77,4.85,1.33,1.89.76,3.19,1.8,4.43,2.46,2.32,1.25,5.08,2.32,6.1,1.52.91-.72-1.33-3.37-1.61-5.52-.18-1.41,1.24-3.31.58-4.95-.57-1.43-.91-3.21-1.82-4.61s-2.27-2.46-3.44-3.58c-1-.97-2.9-.85-4.14-1.65s-1.75-2.78-3.08-3.36-3.04-.18-4.42-.5-2.82-.52-4.22-.53c-1.5-.02-3.02-.38-4.34.05-1.39.45-1.51,2.48-2.55,3.5Z"/>
    <path class="cls-1" d="m228.22,197.73c.47.27.18-.61,1.87-2.67.99-1.21,3.29-1.23,4.69-2.19s2.35-2.76,4.09-2.76c1.59,0,2.48,1.54,3.63,2.26,1.24.78,1.9,2.35,3.03,3.11,1.2.8,3.36.68,4.93.4,1.06-.19,2.69-.85,3.83-2.19.71-.83,1.38-2.1,2.27-3.41.67-.97,1.69-1.9,2.52-3.15.86-1.31,2.09-2.2,2.77-3.25.91-1.41-1.3-4.32-.76-5.34.99-1.84,3.16-2.35,2.79-3.23-.47-1.11-1.67-2.66-3.37-3.22-1.22-.41-2.91-.29-4.51-.39-1.37-.09-2.77,1.33-4.28,1.48-1.42.14-3.13-1.23-4.56-.86s-2.49,1.8-3.81,2.39c-1.39.62-2.6,1.34-3.78,2.17s-2.75,1.36-3.77,2.39-2.95,1.58-3.8,2.75c-.9,1.23.66,3.97-.02,5.22-.74,1.37-1.2,2.61-1.71,3.9-.6,1.54-3.75,2.14-4.04,3.39-.56,2.42,1.6,2.98,1.98,3.21Z"/>
    <path class="cls-1" d="m60.69,189.37c0-1.4,2.07-2.67,4.04-3.63,1.54-.75,3.35-1.34,5.04-1.47,1.24-.1,2.75-.89,4.03-.63s2.59,1.32,3.62,1.9c1.33.75,2.06,2.02,2.18,3.16.14,1.3-.74,2.59-2.06,3.68-1.13.93-2.44,2.01-3.77,2.4-1.58.46-3.22-.61-4.83-.87-1.7-.28-3.78.48-5.07-.29-1.78-1.06-3.19-2.99-3.19-4.25Z"/>
    <path class="cls-1" d="m55.3,163.99c0-.12.24-2.03.9-3.71.45-1.14,1.4-2.38,2.57-2.85,1.12-.46,2.58.14,4.07.73,1.17.46,2.02,1.61,3.18,2.5,1.08.83,2.44,1.32,3.34,2.34.96,1.1,1.74,2.24,2.28,3.38.69,1.45,1.42,2.9,1.03,4.04-.49,1.41-2.52,1.57-4.32,2.1-1.56.46-3.29,2.11-4.84,1.83-1.5-.26-3.22-1.09-4.38-1.99s-1.31-2.9-1.97-4.23-1.89-2.65-1.85-4.15Z"/>
  </g>
</svg>