<?xml version="1.0" encoding="UTF-8"?>
<svg id="Layer_2" data-name="Layer 2" xmlns="http://www.w3.org/2000/svg" viewBox="0 0 229.08 289.07">
  <defs>
    <style>
      .cls-1 {
        fill: #8dc63f;
      }

      .cls-2 {
        fill: #c49a6c;
      }

      .cls-2, .cls-3 {
        stroke: #754c29;
        stroke-miterlimit: 10;
      }

      .cls-4 {
        fill: #158040;
      }

      .cls-3 {
        fill: none;
      }

      .cls-5 {
        fill: #006838;
      }
    </style>
  </defs>
  <g id="frunze3">
    <path class="cls-5" d="m12.92,27.35c-1.62,1.15-3.06,3.13-4.56,4.63s-1,4.63-2.21,6.29-3.57,2.69-4.43,4.51c-.91,1.93-.02,4.32-.37,6.28-.37,2.09.29,3.57.75,5.55s-1.89,5.44-.48,7.13c1.28,1.53,4.89.68,6,1.83,1.38,1.43,1.14,3.95,2.12,5.24,1.07,1.41,2.27,2.52,2.69,4.39.35,1.58-1.84,2.95-2.73,5.33-.66,1.77.64,4.54-.35,6.52-.91,1.82-1.98,3.65-2.92,5.5s-2.64,3.5-3.39,5.28c-.94,2.21-2.91,4.32-3.04,6.01-.17,2.24,2.22,4.27,2.83,6.04.68,1.98,1.88,3.4,3.28,4.85s2.61,3.09,4.45,4.06,3.76,1.52,5.73,2.09,4.2-.6,6.16-.36c2.06.26,4.77,2.7,6.02,4.99.95,1.73-1.59,5.5-.62,7.64.89,1.96,2.38,4.09,3.63,5.89.91,1.31,3.2,2.95,5.12,3.76,1.56.66,4.65-2.06,6.42-1.39s3.53,1.76,5.06,2.67,3.53,2.49,4.52,4.03c.99,1.53,2.33,3.05,3.56,4.86,1.08,1.6,2.42,3.02,3.68,4.68s1.98,3.39,3.33,4.91,2.81,2.65,4.3,3.99,1.8,4.17,3.48,5.21,4.36-.36,6.25.24,3.21,2.01,5.26,1.94c2.5-.08,4.65,1.23,6.35.36,1.55-.79,3.62-.89,5.85-2.05,1.5-.78,3.07-1.51,5.37-2.36,1.66-.61,2.45-4.77,4.7-5.38,2.86-.78,5.56,1.35,6.91,2.69s1.51,2.56,4.35,1.56c2.57-.92,5.77-1.75,7.69-1.17,2.27.69,3.44,4.22,5.06,5.63,2.15,1.87,3.85,5.52,5.49,5.64,2.18.15,4.54-2.37,6.61-2.14,2.22.25,4.07,2.81,6.09,3.07,2.29.3,4.81-2.71,6.74-2.51,2.52.26,4.67,4.21,6.37,4.07,2.15-.18,2.99-3.88,4.14-6.84.63-1.63,1.54-3.03,3.43-5.02,1.26-1.33,2.98-1.97,5.22-3.34,1.87-1.14,2.42-4.64,4.08-4.98,2.15-.43,3.89,3.01,5.53,3.36,2.89.61,6.12-2.28,6.6-2.08,2.19.89,3.38,3.2,5.07,3.68,2.42.68,4.3.52,5.96.59,2.54.11,4.92,2.47,6.59,1.96,1.79-.55,3.13-4.11,3.04-6.59-.05-1.52.33-3.41.24-5.54-.08-1.66-.04-3.21.13-5.21.14-1.7-3.28-4.07-2.79-5.98.42-1.66.7-3.79,1.48-5.59.68-1.58,3.75-2.15,4.77-3.82,1.15-1.87.53-4.88,1.71-6.23,1.44-1.65,4.22-1.81,5.56-3.02,1.62-1.47,2.62-3.15,3.79-4.53,1.26-1.5,4.03-2.55,4.35-4.72.34-2.27.01-5.07-.75-6.94s-3.15-3.17-4.54-4.88c-1.26-1.55-1.87-3.82-3.3-5.45-1.34-1.53-4.92-1.42-6.12-3.19s-2.59-3.7-3.35-5.73c-.69-1.84,2.38-4.63,2.2-6.87-.21-2.5-3.27-4.79-2.81-6.66.56-2.3,1.62-4.51,2.52-6.34,1-2.02,4-3.12,4.5-5.23.44-1.89-1.01-3.95-1.71-6.45-.63-2.24-.05-4.87-1.32-6.33s-4.45-.88-6.27-2.2c-1.49-1.08-3.79-1.48-5.6-2.87-1.47-1.14-.67-5.27-2.32-6.82-1.37-1.29-5.2-.47-6.67-2.17-1.68-1.94-2.42-4.33-3.44-5.89-1.45-2.21-.27-5.17-.98-6.88-.91-2.2-1.32-4.29-2.28-6.26-.82-1.68-1.83-4.1-3.67-6.06-1.36-1.45-3.29-2.85-4.94-4.06s-4.63-.27-6.46-1.21-2.96-3.29-4.89-3.99-3.93-1.24-5.92-1.73-4.21.46-6.23.16-3.91-1.29-5.94-1.42-4.05.53-6.08.56-3.95.89-5.96,1.07-3.78,1.46-5.76,1.78-4.37-1.51-6.31-1.03-3.7,1.77-5.6,2.39-4.36.03-6.18.82c-1.87.81-3.95,1.19-5.55,2.05-1.8.97-2.93,2.97-4.46,3.95-1.74,1.1-1.99,4.24-3.51,5.23-1.73,1.12-5.45-1.53-7.06-.71-1.79.91-2.45,4.28-4.32,4.59s-4,.45-6.07,0c-2.35-.51-2.84-4.15-4.47-5.25-1.87-1.27-5.8.09-7.18-1.44-1.53-1.69-.36-6.05-1.9-7.33-1.64-1.36-4.77-1.56-7.18-1.58-3.3-.02-5.19,1.1-6.51,1.74-1.86.9-2.9,2.13-5.22,4-1.28,1.03-2.59,2.82-5.21,4.04-1.66.77-3.41,2.46-5.88,3.29-2.4.8-4.37,1.64-6.21,2.34-2.36.91-4.71.72-6.51,1.61-2.06,1.02-4.69.78-6.6,2.02-1.69,1.1-3.95,1.73-6,3.19Z"/>
    <path class="cls-4" d="m57.79,129.72c-1.04.87-.32,2.97-.13,5.02.13,1.4-.65,3.24-.09,4.97.47,1.44.77,3.18,1.48,4.73.65,1.44,1.89,2.7,2.69,4.14s1.69,2.82,2.57,4.16,1.9,2.75,2.86,3.97c.84,1.07,2.3,1.85,3.32,2.97s1.78,2.58,2.91,3.35c1.36.92,2.82.92,4.19.63,1.67-.34,1.94-1.74,2.76-3.42.69-1.41,2.4-2.45,3.28-3.91s1.72-2.5,3.38-3.22c1.81-.79,3.15-.15,4.83.35s3.33,1.26,4.88,1.94c1.87.82,4.2,1.11,5.73.23,1.34-.77,1.31-3.11,1.86-5.25.41-1.62.79-3.33.75-5.3-.03-1.81-.29-3.58-.7-5.36-.43-1.88-.92-3.58-1.77-5.07-1-1.77-1.55-4.23-3.11-4.9-1.58-.68-3.18.82-4.69,1.48-1.23.54-3.14.13-4.69.95-1.23.64-2.03,2.64-3.66,3.15-1.33.42-2.94.76-4.64.93-1.76.17-3.56.53-5.11.35-1.74-.2-2.96-2.38-4.45-2.86-1.68-.54-3.44-.43-4.82-1.09-1.68-.81-3.57-.72-4.85-1.3-1.98-.89-3.62-2.59-4.78-1.62Z"/>
    <path class="cls-4" d="m83.79,79.84c-.61,1.5-.14,2.04-.13,3.55s-5.34,3.71-4.98,5.21,4.67,2.07,5.09,3.5c.47,1.62-3.55,3.74-3.46,5.13.11,1.65,4.52,4.42,3.4,5.62-1,1.07-3.45,3.68-4.92,3.88-1.35.19-3.72-.29-5.16-.46s-2.37-5.2-3.65-5.39c-2-.28-6.4-.12-6.87.81-.45.88.27,5.54,1.59,7.55.79,1.21,5.61-.36,6.91.95,1.1,1.11.32,4.55,1.72,5.58,1.3.96,4.52-1.21,6.03-.43s1.72,4.3,3.34,4.77,3.48.05,5.16.15c1.56.09,2.85-1.63,4.29-1.86,1.52-.24,3.14.6,4.53.1s2.35-2,3.67-2.68c1.38-.71,4.95,2.44,6.19,1.69,1.37-.82.06-6.03,1.28-6.73,1.46-.83,4.64,3.35,5.91,2.98,1.58-.45,2.29-4.08,3.63-3.27,1.57.95-1.18,3.22-.85,5.15.24,1.39,4.52,2.23,5.04,4.16.38,1.42-2.37,4.43-1.47,6.15.74,1.41.91,3.94,1.98,5.33,1,1.31,3.37,2.08,4.59,3.27s2.5,2.96,3.86,3.92,5.3-2.26,6.81-1.61c1.59.69,2.7,1.01,4.32,1.19s2.08-1.6,3.71-2.11c1.62-.5,4.45,2.41,5.82,1.28,1.3-1.07,2.28-2.62,3.27-4.09s-1.71-4.3-1.09-5.93,2.38-2.28,2.6-3.98,2.65-3.28,2.38-4.95c-.28-1.8-.89-3.39-1.66-4.68-.82-1.39-.59-4.12-1.85-5.26-1.12-1.02-4.81.8-6.19-.29-1.19-.94-.98-3.73-2.3-4.88-1.14-1-.51-3.71-1.71-4.97-1.05-1.1-3.41-.89-4.47-2.27-.93-1.21-2.35-2.07-3.28-3.54-.96-1.52-1.05-3.18-1.7-4.47-.82-1.63-.12-3.38-.6-4.72-.63-1.74-4.51-2.07-4.9-3.44-.48-1.68-2.35-2.14-3.11-3.51-.69-1.25-.62-2.19-2.1-3.41-1.26-1.04-.51-5.42-2.04-6.14s-3.46-1.33-5.1-1.74-3.58-.41-5.26-.57-3.51.73-5.18.79-3.4.38-5.04.63-3.47.3-5.04.74-3.72.19-5.21.83c-1.58.68-1.97,3.77-3.31,4.63-1.47.94-.59,3.9-1.67,5.04-1.2,1.27-2.21,1.28-2.81,2.76Z"/>
    <path class="cls-4" d="m164.7,151.78c-1.18-1.23.17-4.38-.51-5.83s-.14-2.98-.37-4.61-.07-2.83.09-4.47.79-2.77,1.27-4.32-2.04-4.35-1.28-5.75c.83-1.52,2.24-2.83,3.29-3.96,1.23-1.32,2.23-3.92,3.61-4.48,1.51-.62,4.04.25,5.56.47s2.74,2.12,4.17,2.71c1.53.63,3.4.24,4.7.74,1.81.69,2.6,1.28,3.67.35,1.01-.87.19-1.68-.15-3.62-.23-1.34.2-2.91-.39-4.51-.51-1.4-.86-2.93-1.48-4.39s-1.44-2.82-2.01-4.2c-.65-1.58-.79-3.25-1.16-4.55-.6-2.09-.84-3.89.02-4.62.83-.7,2.91-1.01,5.05-.28,1.34.46,3.46.33,5.02,1.22,1.34.76,2.1,2.84,3.44,3.85s3.39,1.22,4.55,2.36-.21,4.48.71,5.76c.98,1.37,1.82,2.31,2.37,3.77.59,1.57.15,2.52.05,4.11-.11,1.71-.06,1.96-.9,3.15-.72,1.03-1.13,2.35-2.22,3.72-.78.98-.3,3.13-1.2,4.59-.67,1.1-2.77,1.67-3.47,3.17-.8,1.68-1.01,3.47-1.46,4.85-.6,1.81-.29,3.6-.56,4.99-.37,1.89-1.33,3.24-1.71,4.63-.42,1.54,1.3,4.74-.07,6.08-1.05,1.03-3.91.41-5.39,1.11-1.35.63-3.04.42-4.61.73s-2.98,2.23-4.56,2.2-2.74-2.83-4.25-3.21-4.26,2.14-5.63,1.38-3.1-2-4.2-3.14Z"/>
    <path class="cls-4" d="m149.84,57.07c.01-1.57,2.16-3.08,2.5-4.64s1.43-2.77,2.04-4.23-.99-4.21-.16-5.52c.88-1.39,4.35-.76,5.4-1.85,1.17-1.22,1.75-2.63,3.03-3.35,1.5-.85,2.77-3.79,4.25-3.76,1.83.05,3.38,2.54,4.64,3.79,1.07,1.06,3.5,1.44,4.61,2.94.93,1.26-.5,4.57.73,5.89,1.08,1.15,2.69,2.14,4.18,3.17,1.28.89,3.46.36,5.16,1.05,1.53.62,2.28,3.69,3.63,3.96,1.62.33,3.5-1.45,4.86-1.37,1.7.11,3.34-.69,4.63-.46,1.56.28,2.89,1.51,3.83,2.89,1.04,1.53,2.62,3.76,2.4,5.7-.21,1.84-2,3.7-2.69,5.35-1.05,2.49-1.6,4.97-1.9,5.46-.2.32-2.11,1.29-3.82,3.14-.93,1.01-2.07,2.17-3.42,3.25-1.15.92-1.83,3.03-3.27,3.82-1.31.72-3.71-.66-5.26-.17-1.43.45-2.87.29-4.49.43-1.63.14-3.26,2.02-4.88,1.82s-2.83-2.19-4.38-2.71-2.35-2.12-3.79-2.89-3.68.02-4.97-.97-3.91-.73-5.03-1.9.65-4.72-.26-6.06-2.36-2.16-3.01-3.63-.54-3-.88-4.58-3.69-2.9-3.67-4.53Z"/>
    <path class="cls-4" d="m19.76,98.78c-1.16-1.32,1.58-4.89.96-6.45s-5.37-2.23-5.5-3.94.57-3.85.85-5.53.04-4.05.66-5.59c.67-1.65,5.31-1.09,6.29-2.39,1.16-1.54.44-4.49,1.75-5.31,1.49-.94,3.92.59,5.53.11s2.11-4.52,3.76-5.06c1.54-.5,3.89,1.24,5.43.27,1.3-.82,1.35-3.03,2.61-4.46,1.1-1.24,2.77-1.66,3.44-2.93.77-1.44.02-3.18.44-4.57.47-1.57,4.33-2.18,4.63-3.58.36-1.67-.61-3.31-.05-4.56.64-1.44,1.8-.66,3.4-1.28,1.31-.5,1.56-1.28,3.14-.92,1.22.28,3.06-.99,4.57-.27,1.17.55,2.25,1.64,3.66,2.41,1.17.64,3.18.02,4.55.79,1.4.79,1.28,3.89,2.38,4.53,1.48.87,2.07,2.2,3.01,2.91,1.56,1.17,4.11.47,4.21,1.64.14,1.55-1.53,2.39-3.14,3.53-1.11.79-2.21,2.06-3.84,2.87-1.33.66-2,2.86-3.51,3.65-1.36.71-4.22-1.11-5.62-.23-1.32.83-3.53.9-4.8,1.94s-1.02,3.79-2.1,5.03c-1.02,1.17-.41,3.41-1.25,4.85-.93,1.59-5.05,1.62-5.53,3.08-.56,1.72,2.41,4.16,2.23,5.71-.2,1.77-2.19,3.25-2.29,4.82-.12,1.76,2.2,4.09,1.64,5.62-.53,1.45-3.36,1.93-4.81,3.2-1.12.98-1.31,4.2-2.8,4.85-1.38.6-3.52.68-5.09.96s-3.3-3.84-4.87-3.9-3.67,3.87-5.17,3.46-3.55-.95-4.88-1.75-2.86-2.33-3.91-3.53Z"/>
    <path class="cls-4" d="m97.47,34.44c1.55-1.08,2.97-1.42,4.04-2.53,1.31-1.37,3.81-1.4,4.65-2.67,1.07-1.62,2.44-2.66,3.32-3.84,1.09-1.46,1.65-1.15,3.52-1.41,1.72-.23,2.2-.71,3.51.18,1.2.81,4.16-.39,5.42.71,1.13.99,2.25,1.22,3.71,1.96,1.29.65,1.7,3.17,3.44,3.3,2,.16,4.08.77,5.64.21,1.85-.67,3.03-2.66,4.39-3.52,2.05-1.3,3.24-1.55,4.53-.74.97.61,3.61,1.26,3.85,3.28.16,1.36-1.45,3.14-1.66,4.84-.18,1.46,1.23,3.53.76,5.09-.44,1.46-4.26,1.63-4.98,3.04s.08,3.56-.9,4.77-3.37.63-4.63,1.55c-1.36,1-1.84,2.71-3.51,3.16-1.5.4-3,.58-4.84.62-1.53.03-3.08-.52-4.91-.71-1.55-.16-3.19-.08-4.98-.37-1.55-.25-3.12-.9-4.88-1.24-1.56-.3-3.75,2.13-5.49,1.77-1.57-.32-2.67-3.32-4.4-3.68-1.37-.28-2.85-1.07-4.53-1.45-1.53-.35-3.96,2.59-5.47,2.17-1.66-.46-2.75-2.71-4.05-3.24-2.14-.87-1.9-1.89-1.88-2.9.02-1.07-.13-2.05,2.42-2.83,1.35-.42,3.39.2,5.14-.6,1.38-.63,1.27-3.9,2.78-4.95Z"/>
  </g>
  <g id="radacina3">
    <path class="cls-2" d="m181.96,143.96l-5.79,10.89v-26.21l-3.4-.34c.04,9.72.28,12.85,0,33.36,0,0-10.64,9.43-21.79,10.55l-1.36-2.38s.3-8.7,2.53-14.26,7.47-14.87,7.47-14.87l-4.28-.89s-7.43,17.39-9.05,17.06-1.19-4.03-1.22-4.55l.79-5.98,1.36-17.02-3.06.34s-2.72,9.77-2.38,18.72c.34,8.96-12.26,18.72-12.26,18.72l-.68-21.45,13.62-29.28,14.64-25.53-2.72-3.06s-13.05,23.49-15.32,27.57-8.85-1.02-8.85-1.02l-9.87-10.55v-9.53l-3.4,2.38-.34,8.17s9.85,11.33,13.62,15.66c3.77,4.33-5.53,15.19-6.89,24.07-1.36,8.87,1.79,31.76,1.79,31.76l-3.4,18.92-2.38,18.52s-5.96-4.1-7.49-9.22-5.11-17.86-3.32-24.75l7.4-7.55v-31.32l-9.19-20.43-1.36,4.43,6.81,13.96-2.38,31.66-4.43,1.02-5.45-9.53c-3.81-5.84-1.83-11.63-1.9-17.44l-5.08.23,1.28,18.64,6.52,9.15,1.23,24.15-6.47-6.81s.26-11.87-1.02-15.51c-.64-1.82-10.94-21.58-20.74-40.03-.2-.38,5.49-5.16,8.53-7.85,1.36-1.2,5-6.9,5.49-9.32.6-3.01-1.04-2.13-1.66-3.19-.38-.65-6.92,12.12-10.98,13.79-3.17,1.3-4.79.15-5.03-.3-1.6-3.01-3.12-5.84-4.49-8.38-10.91-9.96-23.93-22.69-23.93-22.69h-5.87l29.63,29.59,8.67,22.2,17.66,28.41v17.02s6.97,10.82,11.74,12.37c0,0,6.99,10.18,7.07,13.89l5.36,21.45-4.09,33.09-1.7,14.12h21.79s-4.26-14.08-3.86-19.63c0,0,4.97-21.33,3.94-26.11s-2.81-21.6-2.81-21.6l3.06-26.01s6.38-.64,8.17-3.26,2.38-7.15,2.38-7.15c0,0,25.19-16.79,31.32-17.7l10.89-22.47-3.06-.68Zm-39.19,27.25c-1.34,3.77-1.95,6.86-5.23,9.26s-6.3,4.34-6.3,4.34c0,0,1.51-6.26,1.02-10.89,2.65-5.07,7.26-9.47,7.26-9.47l2.81-3.38s1.85-1.72,2.74-.7-.96,7.08-2.3,10.85Z"/>
    <path class="cls-3" d="m181.96,143.96l-5.79,10.89v-26.21l-3.4-.34c.04,9.72.28,12.85,0,33.36,0,0-10.64,9.43-21.79,10.55l-1.36-2.38s.3-8.7,2.53-14.26,7.47-14.87,7.47-14.87l-4.28-.89s-7.43,17.39-9.05,17.06-1.19-4.03-1.22-4.55l.79-5.98,1.36-17.02-3.06.34s-2.72,9.77-2.38,18.72c.34,8.96-12.26,18.72-12.26,18.72l-.68-21.45,13.62-29.28,14.64-25.53-2.72-3.06s-13.05,23.49-15.32,27.57-8.85-1.02-8.85-1.02l-9.87-10.55v-9.53l-3.4,2.38-.34,8.17s9.85,11.33,13.62,15.66c3.77,4.33-5.53,15.19-6.89,24.07-1.36,8.87,1.79,31.76,1.79,31.76l-3.4,18.92-2.38,18.52s-5.96-4.1-7.49-9.22-5.11-17.86-3.32-24.75l7.4-7.55v-31.32l-9.19-20.43-1.36,4.43,6.81,13.96-2.38,31.66-4.43,1.02-5.45-9.53c-3.81-5.84-1.83-11.63-1.9-17.44l-5.08.23,1.28,18.64,6.52,9.15,1.23,24.15-6.47-6.81s.26-11.87-1.02-15.51c-.64-1.82-10.94-21.58-20.74-40.03-.2-.38,5.49-5.16,8.53-7.85,1.36-1.2,5-6.9,5.49-9.32.6-3.01-1.04-2.13-1.66-3.19-.38-.65-6.92,12.12-10.98,13.79-3.17,1.3-4.79.15-5.03-.3-1.6-3.01-3.12-5.84-4.49-8.38-10.91-9.96-23.93-22.69-23.93-22.69h-5.87l29.63,29.59,8.67,22.2,17.66,28.41v17.02s6.97,10.82,11.74,12.37c0,0,6.99,10.18,7.07,13.89l5.36,21.45-4.09,33.09-1.7,14.12h21.79s-4.26-14.08-3.86-19.63c0,0,4.97-21.33,3.94-26.11s-2.81-21.6-2.81-21.6l3.06-26.01s6.38-.64,8.17-3.26,2.38-7.15,2.38-7.15c0,0,25.19-16.79,31.32-17.7l10.89-22.47-3.06-.68Zm-39.19,27.25c-1.34,3.77-1.95,6.86-5.23,9.26s-6.3,4.34-6.3,4.34c0,0,1.51-6.26,1.02-10.89,2.65-5.07,7.26-9.47,7.26-9.47l2.81-3.38s1.85-1.72,2.74-.7-.96,7.08-2.3,10.85Z"/>
  </g>
  <g id="frunze3-top">
    <g>
      <g>
        <path class="cls-1" d="m44.35,114.7c-.61-1.54.46-5.6,1.27-8.13.73-2.27,3.94-3.7,5.02-5.25s2.88-1.56,4.82-2.14,3.93.25,5.57.13c3.77-.28,3.96,1.83,6.73,4.66,1.26,1.28,5.04.43,6.85,1.8s2.54,1.33,4.59,1.34c2.84,0,4.76,1.24,6.45-.19,2.1-1.76,3.5-2.47,5.99-1.68,2.26.71,7.56-.72,8.73,1.96s1.23,7.64.21,9.92c-.67,1.5-1.64,4.42-4.1,4.91-2.03.4-4.63-1.17-6.43-.84-2.98.55-6.52,1.28-10.11,1.1-3.36-.17-6.5-3.02-9.72-3.54-3.8-.62-7.3-.59-9.91-1.28-2.59-.69-4.62-3.44-6.66-3.74-3.52-.51-8.74,2.39-9.3.98Z"/>
        <path class="cls-1" d="m44.35,114.7c-.61-1.54.46-5.6,1.27-8.13.73-2.27,3.94-3.7,5.02-5.25s2.88-1.56,4.82-2.14,3.93.25,5.57.13c3.77-.28,3.96,1.83,6.73,4.66,1.26,1.28,5.04.43,6.85,1.8s2.54,1.33,4.59,1.34c2.84,0,4.76,1.24,6.45-.19,2.1-1.76,3.5-2.47,5.99-1.68,2.26.71,7.56-.72,8.73,1.96s1.23,7.64.21,9.92c-.67,1.5-1.64,4.42-4.1,4.91-2.03.4-4.63-1.17-6.43-.84-2.98.55-6.52,1.28-10.11,1.1-3.36-.17-6.5-3.02-9.72-3.54-3.8-.62-7.3-.59-9.91-1.28-2.59-.69-4.62-3.44-6.66-3.74-3.52-.51-8.74,2.39-9.3.98Z"/>
      </g>
      <g>
        <path class="cls-1" d="m130.65,87.43c-.43-1.73-.08-3.13.88-4.86.8-1.44,2.16-2.46,3.58-3.81,3.2-3.04,5.77-4.44,8.67-3.58,2.24.66,2.07,2.42,3.2,4.63.8,1.55,3.5,1.64,5.78,3.12,2.39,1.55,3.54,3.86,5.41,4.12,2.12.28,3.3.56,5.34,2.49,1.21,1.15,4.89.95,6.05,2.61,1.41,2.01,1.05,5.03.17,6.37-.91,1.39-3.09-.19-5.94-.79-2.01-.43-4.61.74-6.72.35-1.86-.35-3.48-1.91-5.34-2.53s-4.36.81-6.14.3c-3.62-1.03-7.46.58-9.83-.26-4.22-1.5-4.5-5.69-5.11-8.16Z"/>
        <path class="cls-1" d="m130.65,87.43c-.43-1.73-.08-3.13.88-4.86.8-1.44,2.16-2.46,3.58-3.81,3.2-3.04,5.77-4.44,8.67-3.58,2.24.66,2.07,2.42,3.2,4.63.8,1.55,3.5,1.64,5.78,3.12,2.39,1.55,3.54,3.86,5.41,4.12,2.12.28,3.3.56,5.34,2.49,1.21,1.15,4.89.95,6.05,2.61,1.41,2.01,1.05,5.03.17,6.37-.91,1.39-3.09-.19-5.94-.79-2.01-.43-4.61.74-6.72.35-1.86-.35-3.48-1.91-5.34-2.53s-4.36.81-6.14.3c-3.62-1.03-7.46.58-9.83-.26-4.22-1.5-4.5-5.69-5.11-8.16Z"/>
      </g>
      <g>
        <path class="cls-1" d="m56.8,56.23c-.1-2.23-.58-6.05.06-8.22.67-2.29,9.53-.71,10.76-2.4,1.56-2.15.23-5.25,2.19-5.42,2.01-.17.28,3.4,1.8,4.99,1.3,1.36,5.01.84,6.52,2.14s4.05-2.82,6.23-2.78c2.56.04,5.67,4.48,7.34,3.16,2.19-1.73,4.24-9.33,6.18-8.59,1.45.55,2.97,5.96,3.47,8.32.34,1.62,2.59,3.79,2.69,5.84.09,1.81-3.85,3.94-3.82,5.84.04,2.58-5.03,4.49-5.09,6.22-.11,2.79,8.13,7.61,7.07,9.07-1.07,1.49-6.15.56-7.98,1.37-1.63.72-3.91-.53-5.9-.33-1.82.19-3.13-3.22-5.06-3.44s-3.93,2.8-5.74,2.22-6.35,3.86-7.96,2.92c-.75-.44.68-6.47-1.18-8.1-1.2-1.05-3.12-1.61-4.25-3.16-.99-1.36-2.27-2.77-2.91-4.51-.59-1.57-4.34-3.27-4.43-5.16Z"/>
        <path class="cls-1" d="m56.8,56.23c-.1-2.23-.58-6.05.06-8.22.67-2.29,9.53-.71,10.76-2.4,1.56-2.15.23-5.25,2.19-5.42,2.01-.17.28,3.4,1.8,4.99,1.3,1.36,5.01.84,6.52,2.14s4.05-2.82,6.23-2.78c2.56.04,5.67,4.48,7.34,3.16,2.19-1.73,4.24-9.33,6.18-8.59,1.45.55,2.97,5.96,3.47,8.32.34,1.62,2.59,3.79,2.69,5.84.09,1.81-3.85,3.94-3.82,5.84.04,2.58-5.03,4.49-5.09,6.22-.11,2.79,8.13,7.61,7.07,9.07-1.07,1.49-6.15.56-7.98,1.37-1.63.72-3.91-.53-5.9-.33-1.82.19-3.13-3.22-5.06-3.44s-3.93,2.8-5.74,2.22-6.35,3.86-7.96,2.92c-.75-.44.68-6.47-1.18-8.1-1.2-1.05-3.12-1.61-4.25-3.16-.99-1.36-2.27-2.77-2.91-4.51-.59-1.57-4.34-3.27-4.43-5.16Z"/>
      </g>
      <g>
        <path class="cls-1" d="m86.47,142.55c-.52-1.59-1.34-3.93.05-5.57,1.47-1.73,4.3-1.63,5.52-1.76,2.38-.25,3.48,1.47,6.96,2,4.07.62,5.95-2.3,8.29-1.39,1.29.51,3.09,2.17,3.14,4.69.04,2.01-.85,4.4-2.12,5.89-1.19,1.4-3.61,1.22-6,1.57-1.96.28-3.91.08-6.05-.23s-4.91,1.12-6.69.32c-2.3-1.04-2.56-3.85-3.1-5.52Z"/>
        <path class="cls-1" d="m86.47,142.55c-.52-1.59-1.34-3.93.05-5.57,1.47-1.73,4.3-1.63,5.52-1.76,2.38-.25,3.48,1.47,6.96,2,4.07.62,5.95-2.3,8.29-1.39,1.29.51,3.09,2.17,3.14,4.69.04,2.01-.85,4.4-2.12,5.89-1.19,1.4-3.61,1.22-6,1.57-1.96.28-3.91.08-6.05-.23s-4.91,1.12-6.69.32c-2.3-1.04-2.56-3.85-3.1-5.52Z"/>
      </g>
      <g>
        <path class="cls-1" d="m155.46,140.15c-1.32-1.71-1.71-3.1-1.11-5.7.52-2.26-.28-5.45,1.06-7.33,1.65-2.33,4.65-2.75,6.53-2.82,3.09-.11,4.12,2.91,7.05,2.57,2.29-.26,4.28-1.88,5.64-4.91,1.01-2.24,2.32-3.42,4.73-5,1.67-1.09,2.55-3.79,4.6-3.99s4.33.2,6.15.72c2.4.68,6.14,1.41,6.69,2.92.56,1.51-1.04,5.04-3.16,7.48-1.15,1.33-3,2.74-4.88,4.53-1.4,1.33-3.47,2.31-5.24,3.95-1.76,1.63-3.82,2.46-5.24,3.62-2,1.63-3.17,3.63-4.58,4.51-3,1.89-5.28,1.37-6.23,1.6-.98.24-3.83-.83-6.82-.89-2.46-.05-3.78.54-5.17-1.27Z"/>
        <path class="cls-1" d="m155.46,140.15c-1.32-1.71-1.71-3.1-1.11-5.7.52-2.26-.28-5.45,1.06-7.33,1.65-2.33,4.65-2.75,6.53-2.82,3.09-.11,4.12,2.91,7.05,2.57,2.29-.26,4.28-1.88,5.64-4.91,1.01-2.24,2.32-3.42,4.73-5,1.67-1.09,2.55-3.79,4.6-3.99s4.33.2,6.15.72c2.4.68,6.14,1.41,6.69,2.92.56,1.51-1.04,5.04-3.16,7.48-1.15,1.33-3,2.74-4.88,4.53-1.4,1.33-3.47,2.31-5.24,3.95-1.76,1.63-3.82,2.46-5.24,3.62-2,1.63-3.17,3.63-4.58,4.51-3,1.89-5.28,1.37-6.23,1.6-.98.24-3.83-.83-6.82-.89-2.46-.05-3.78.54-5.17-1.27Z"/>
      </g>
      <g>
        <path class="cls-1" d="m162.56,58.73c-.45-2.04-.52-3.6-.51-5.14.02-2.52-.5-3.39,1.01-3.74,1.68-.39,3.07.53,5.03,2.72,1.25,1.39,2.57,2.18,5.06,2.78,2.3.55,4.55,1.88,6.29.82s2.39-2.37,4.73-1.74c1.9.51,4.38.91,6.26,2.65s4.89,3.46,5.26,5.61c.44,2.63-5.26,4.6-6.7,6.81s-2.5,3.8-4.7,4.74c-3.25,1.38-6.84,3.42-10.56,1.93-1.65-.66-3.1-2.68-5.05-3.33s-4.27-.7-5.56-2.08-2-3.69-2.09-5.8,1.93-4.51,1.55-6.22Z"/>
        <path class="cls-1" d="m162.56,58.73c-.45-2.04-.52-3.6-.51-5.14.02-2.52-.5-3.39,1.01-3.74,1.68-.39,3.07.53,5.03,2.72,1.25,1.39,2.57,2.18,5.06,2.78,2.3.55,4.55,1.88,6.29.82s2.39-2.37,4.73-1.74c1.9.51,4.38.91,6.26,2.65s4.89,3.46,5.26,5.61c.44,2.63-5.26,4.6-6.7,6.81s-2.5,3.8-4.7,4.74c-3.25,1.38-6.84,3.42-10.56,1.93-1.65-.66-3.1-2.68-5.05-3.33s-4.27-.7-5.56-2.08-2-3.69-2.09-5.8,1.93-4.51,1.55-6.22Z"/>
      </g>
      <g>
        <path class="cls-1" d="m12.37,50.06c1.07-2.39,6.28-1.76,8.71-3.22s3.21.15,5.72.78c3.8.96,2.08,2.29,4.59,6.98.86,1.61,5.11.51,7.45,1.61,1.89.88,3.08,3.39,4.76,4.88,1.97,1.76,3.55,2.96,4.65,4.12,1.88,1.98,2.2,3.29,2.42,5.28.29,2.66-.3,6.14-3.5,8.51-2.64,1.96-6.4,1.31-9.66,1.47-1.75.09-3.69,1.85-5.61,1.78s-3.62-1.35-5.24-2.41c-1.51-.98-2.1-2.77-3.07-4.52s-3.25-2.42-4.35-3.86-2.64-2.48-3.93-3.82c-1.38-1.44-1.08-4.06-1.61-5.76-.56-1.85-.26-3.75-.32-5.7-.06-2.13-1.72-4.51-1-6.12Z"/>
        <path class="cls-1" d="m12.37,50.06c1.07-2.39,6.28-1.76,8.71-3.22s3.21.15,5.72.78c3.8.96,2.08,2.29,4.59,6.98.86,1.61,5.11.51,7.45,1.61,1.89.88,3.08,3.39,4.76,4.88,1.97,1.76,3.55,2.96,4.65,4.12,1.88,1.98,2.2,3.29,2.42,5.28.29,2.66-.3,6.14-3.5,8.51-2.64,1.96-6.4,1.31-9.66,1.47-1.75.09-3.69,1.85-5.61,1.78s-3.62-1.35-5.24-2.41c-1.51-.98-2.1-2.77-3.07-4.52s-3.25-2.42-4.35-3.86-2.64-2.48-3.93-3.82c-1.38-1.44-1.08-4.06-1.61-5.76-.56-1.85-.26-3.75-.32-5.7-.06-2.13-1.72-4.51-1-6.12Z"/>
      </g>
      <g>
        <path class="cls-1" d="m123.12,27.28c-.35-2-2.13-4.93-.96-6.57s5.54.09,7.09-.72c1.36-.71,1.24-5.25,3.82-5.31,1.24-.03,2.84-.22,5.04-.28,2.61-.07,4.57-.46,6.16-.53,4.58-.22,3.2,4.08,3.69,4.89.68,1.12,4.82,3.34,3.25,5.53-1.01,1.41-6.22-.46-7.77.93-1.43,1.28-1.17,4.8-2.82,5.76-1.24.73-4.69-.27-7.64.44-2.36.57-5.4,4.05-7.7,2.77-.37-.2-1.6-3.69-2.17-6.9Z"/>
        <path class="cls-1" d="m123.12,27.28c-.35-2-2.13-4.93-.96-6.57s5.54.09,7.09-.72c1.36-.71,1.24-5.25,3.82-5.31,1.24-.03,2.84-.22,5.04-.28,2.61-.07,4.57-.46,6.16-.53,4.58-.22,3.2,4.08,3.69,4.89.68,1.12,4.82,3.34,3.25,5.53-1.01,1.41-6.22-.46-7.77.93-1.43,1.28-1.17,4.8-2.82,5.76-1.24.73-4.69-.27-7.64.44-2.36.57-5.4,4.05-7.7,2.77-.37-.2-1.6-3.69-2.17-6.9Z"/>
      </g>
      <g>
        <path class="cls-1" d="m131.56,130.63c-.44-2.22,2.38-4.03,4.66-5.83s3.89-2.42,5.99-1.46c2.5,1.14,6.37,4.62,4.94,8.09-1.13,2.75-5.5,2.4-8.22,2.43-3.22.03-6.87-.73-7.37-3.24Z"/>
        <path class="cls-1" d="m131.56,130.63c-.44-2.22,2.38-4.03,4.66-5.83s3.89-2.42,5.99-1.46c2.5,1.14,6.37,4.62,4.94,8.09-1.13,2.75-5.5,2.4-8.22,2.43-3.22.03-6.87-.73-7.37-3.24Z"/>
      </g>
    </g>
    <g>
      <path class="cls-1" d="m44.35,114.7c-.61-1.54.46-5.6,1.27-8.13.73-2.27,3.94-3.7,5.02-5.25s2.88-1.56,4.82-2.14,3.93.25,5.57.13c3.77-.28,3.96,1.83,6.73,4.66,1.26,1.28,5.04.43,6.85,1.8s2.54,1.33,4.59,1.34c2.84,0,4.76,1.24,6.45-.19,2.1-1.76,3.5-2.47,5.99-1.68,2.26.71,7.56-.72,8.73,1.96s1.23,7.64.21,9.92c-.67,1.5-1.64,4.42-4.1,4.91-2.03.4-4.63-1.17-6.43-.84-2.98.55-6.52,1.28-10.11,1.1-3.36-.17-6.5-3.02-9.72-3.54-3.8-.62-7.3-.59-9.91-1.28-2.59-.69-4.62-3.44-6.66-3.74-3.52-.51-8.74,2.39-9.3.98Z"/>
      <path class="cls-1" d="m130.65,87.43c-.43-1.73-.08-3.13.88-4.86.8-1.44,2.16-2.46,3.58-3.81,3.2-3.04,5.77-4.44,8.67-3.58,2.24.66,2.07,2.42,3.2,4.63.8,1.55,3.5,1.64,5.78,3.12,2.39,1.55,3.54,3.86,5.41,4.12,2.12.28,3.3.56,5.34,2.49,1.21,1.15,4.89.95,6.05,2.61,1.41,2.01,1.05,5.03.17,6.37-.91,1.39-3.09-.19-5.94-.79-2.01-.43-4.61.74-6.72.35-1.86-.35-3.48-1.91-5.34-2.53s-4.36.81-6.14.3c-3.62-1.03-7.46.58-9.83-.26-4.22-1.5-4.5-5.69-5.11-8.16Z"/>
      <path class="cls-1" d="m56.8,56.23c-.1-2.23-.58-6.05.06-8.22.67-2.29,9.53-.71,10.76-2.4,1.56-2.15.23-5.25,2.19-5.42,2.01-.17.28,3.4,1.8,4.99,1.3,1.36,5.01.84,6.52,2.14s4.05-2.82,6.23-2.78c2.56.04,5.67,4.48,7.34,3.16,2.19-1.73,4.24-9.33,6.18-8.59,1.45.55,2.97,5.96,3.47,8.32.34,1.62,2.59,3.79,2.69,5.84.09,1.81-3.85,3.94-3.82,5.84.04,2.58-5.03,4.49-5.09,6.22-.11,2.79,8.13,7.61,7.07,9.07-1.07,1.49-6.15.56-7.98,1.37-1.63.72-3.91-.53-5.9-.33-1.82.19-3.13-3.22-5.06-3.44s-3.93,2.8-5.74,2.22-6.35,3.86-7.96,2.92c-.75-.44.68-6.47-1.18-8.1-1.2-1.05-3.12-1.61-4.25-3.16-.99-1.36-2.27-2.77-2.91-4.51-.59-1.57-4.34-3.27-4.43-5.16Z"/>
      <path class="cls-1" d="m86.47,142.55c-.52-1.59-1.34-3.93.05-5.57,1.47-1.73,4.3-1.63,5.52-1.76,2.38-.25,3.48,1.47,6.96,2,4.07.62,5.95-2.3,8.29-1.39,1.29.51,3.09,2.17,3.14,4.69.04,2.01-.85,4.4-2.12,5.89-1.19,1.4-3.61,1.22-6,1.57-1.96.28-3.91.08-6.05-.23s-4.91,1.12-6.69.32c-2.3-1.04-2.56-3.85-3.1-5.52Z"/>
      <path class="cls-1" d="m155.46,140.15c-1.32-1.71-1.71-3.1-1.11-5.7.52-2.26-.28-5.45,1.06-7.33,1.65-2.33,4.65-2.75,6.53-2.82,3.09-.11,4.12,2.91,7.05,2.57,2.29-.26,4.28-1.88,5.64-4.91,1.01-2.24,2.32-3.42,4.73-5,1.67-1.09,2.55-3.79,4.6-3.99s4.33.2,6.15.72c2.4.68,6.14,1.41,6.69,2.92.56,1.51-1.04,5.04-3.16,7.48-1.15,1.33-3,2.74-4.88,4.53-1.4,1.33-3.47,2.31-5.24,3.95-1.76,1.63-3.82,2.46-5.24,3.62-2,1.63-3.17,3.63-4.58,4.51-3,1.89-5.28,1.37-6.23,1.6-.98.24-3.83-.83-6.82-.89-2.46-.05-3.78.54-5.17-1.27Z"/>
      <path class="cls-1" d="m162.56,58.73c-.45-2.04-.52-3.6-.51-5.14.02-2.52-.5-3.39,1.01-3.74,1.68-.39,3.07.53,5.03,2.72,1.25,1.39,2.57,2.18,5.06,2.78,2.3.55,4.55,1.88,6.29.82s2.39-2.37,4.73-1.74c1.9.51,4.38.91,6.26,2.65s4.89,3.46,5.26,5.61c.44,2.63-5.26,4.6-6.7,6.81s-2.5,3.8-4.7,4.74c-3.25,1.38-6.84,3.42-10.56,1.93-1.65-.66-3.1-2.68-5.05-3.33s-4.27-.7-5.56-2.08-2-3.69-2.09-5.8,1.93-4.51,1.55-6.22Z"/>
      <path class="cls-1" d="m12.37,50.06c1.07-2.39,6.28-1.76,8.71-3.22s3.21.15,5.72.78c3.8.96,2.08,2.29,4.59,6.98.86,1.61,5.11.51,7.45,1.61,1.89.88,3.08,3.39,4.76,4.88,1.97,1.76,3.55,2.96,4.65,4.12,1.88,1.98,2.2,3.29,2.42,5.28.29,2.66-.3,6.14-3.5,8.51-2.64,1.96-6.4,1.31-9.66,1.47-1.75.09-3.69,1.85-5.61,1.78s-3.62-1.35-5.24-2.41c-1.51-.98-2.1-2.77-3.07-4.52s-3.25-2.42-4.35-3.86-2.64-2.48-3.93-3.82c-1.38-1.44-1.08-4.06-1.61-5.76-.56-1.85-.26-3.75-.32-5.7-.06-2.13-1.72-4.51-1-6.12Z"/>
      <path class="cls-1" d="m123.12,27.28c-.35-2-2.13-4.93-.96-6.57s5.54.09,7.09-.72c1.36-.71,1.24-5.25,3.82-5.31,1.24-.03,2.84-.22,5.04-.28,2.61-.07,4.57-.46,6.16-.53,4.58-.22,3.2,4.08,3.69,4.89.68,1.12,4.82,3.34,3.25,5.53-1.01,1.41-6.22-.46-7.77.93-1.43,1.28-1.17,4.8-2.82,5.76-1.24.73-4.69-.27-7.64.44-2.36.57-5.4,4.05-7.7,2.77-.37-.2-1.6-3.69-2.17-6.9Z"/>
      <path class="cls-1" d="m131.56,130.63c-.44-2.22,2.38-4.03,4.66-5.83s3.89-2.42,5.99-1.46c2.5,1.14,6.37,4.62,4.94,8.09-1.13,2.75-5.5,2.4-8.22,2.43-3.22.03-6.87-.73-7.37-3.24Z"/>
    </g>
  </g>
</svg>