<?xml version="1.0" encoding="UTF-8"?>
<svg id="Layer_2" data-name="Layer 2" xmlns="http://www.w3.org/2000/svg" viewBox="0 0 115.14 108.37">
  <defs>
    <style>
      .cls-1 {
        fill: #d1d3d4;
        opacity: .77;
      }

      .cls-2 {
        fill: #009444;
      }

      .cls-3 {
        fill: #fff;
        opacity: .83;
      }

      .cls-4 {
        fill: #8dc63f;
        stroke: #009444;
      }

      .cls-4, .cls-5 {
        stroke-miterlimit: 10;
      }

      .cls-6 {
        fill: #006838;
      }

      .cls-5 {
        fill: #c49a6c;
        stroke: #754c29;
        stroke-width: .5px;
      }
    </style>
  </defs>
  <g id="apple3">
    <path class="cls-4" d="m72.26,13.15c-7.65-.76-26.55.77-38.81,7.4-12.26,6.64-19.66,18.64-19.66,41.87s24.51,40.6,28.98,41.87c4.47,1.28,10.09,0,10.09,0,0,0,5.62,3.57,11.74,3.57s17.87-4.34,17.87-4.34c3.4,1.45,5.36,1.02,5.36,1.02,7.4-3.83,26.81-32.68,26.81-47.74s-7.4-30.13-19.4-36.51c-12-6.38-15.32-6.38-22.98-7.15Z"/>
    <path class="cls-3" d="m38.9,30.74c2.2-2.17,5.22,1.16,14.56,1.19,8.03.03,10.14-.9,18.21-4.77,5.69-2.72,14.13,3.4,17.36,5.11,2.36,1.24-9.67,5.29-16.34,6.13-10.31,1.29-11.99-1.86-21.79.17-4.67.97-6.86,1.94-9.7.85-7.07-2.72-4.33-6.69-2.31-8.68Z"/>
    <path class="cls-1" d="m51.16,19.06c.14-2.49,6.78-4.53,12.26-4.21,3.35.19,7.72,1.35,7.79,2.81.03.58.47,1.63-1.53,1.96s-11.39,3.32-12.77,3.66-5.85-2.35-5.74-4.21Z"/>
    <path class="cls-2" d="m55.15,21.23C56.96,14.63,44.04,2.12,29.79.12c-4.45-.62-4.07,1.28-8.17,1.34-3.48.05-6.22-1.37-14.64,3.76C2.17,8.15-.01,10.83,0,12.64,0,12.64,4,13.14,9.81,14.43c2.37.53,5.04,1.18,7.86,1.99,3.61,1.03,7.47,2.31,11.27,3.88,7.08,3.53,10.83,4.84,18.13,5.02.52.01,7-.13,8.09-4.09Z"/>
    <path class="cls-5" d="m58.64,25.76s-1.7-2.83-3.23-3,0-1.7,0-1.7l2.21.97-.94-9.99s3.45-2.63,4.53,1.24l-.8,11.44c-.75.17-1.78,1.04-1.78,1.04Z"/>
    <path class="cls-3" d="m89.01,23.77c-1.6-.08-3.69.52-4.09,1.62-.53,1.5,2.14,3.75,4.94,3.79,1.57.03,4.86,1.12,5.22,0,.47-1.51-3.42-5.29-6.07-5.42Z"/>
    <path class="cls-6" d="m23.41,14.55c.11-.91-5.29-10.56,4.25-5.77,1.4.7,22.99,12.65,22.98,12.71-.1.42-7.58.64-14.98-1.36-7.09-1.91-12.32-4.98-12.25-5.57Z"/>
  </g>
</svg>