<?xml version="1.0" encoding="UTF-8"?>
<svg id="Layer_2" data-name="Layer 2" xmlns="http://www.w3.org/2000/svg" viewBox="0 0 115.14 108.53">
  <defs>
    <style>
      .cls-1 {
        fill: #d1d3d4;
        opacity: .77;
      }

      .cls-2 {
        fill: #009444;
      }

      .cls-3 {
        fill: #fff;
        opacity: .83;
      }

      .cls-4 {
        fill: #ce3045;
        stroke: #b32c39;
      }

      .cls-4, .cls-5 {
        stroke-miterlimit: 10;
      }

      .cls-6 {
        fill: #006838;
      }

      .cls-5 {
        fill: #c49a6c;
        stroke: #754c29;
        stroke-width: .5px;
      }
    </style>
  </defs>
  <g id="apple1">
    <path class="cls-4" d="m72.26,13.31c-7.65-.76-26.55.77-38.81,7.4-12.26,6.64-19.66,18.64-19.66,41.87s24.51,40.6,28.98,41.87c4.47,1.28,10.09,0,10.09,0,0,0,5.62,3.57,11.74,3.57s17.87-4.34,17.87-4.34c3.4,1.45,5.36,1.02,5.36,1.02,7.4-3.83,26.81-32.68,26.81-47.74s-7.4-30.13-19.4-36.51c-12-6.38-15.32-6.38-22.98-7.15Z"/>
    <path class="cls-3" d="m35.66,27.18c2.2-2.17,7,3.54,16.34,3.57,8.03.03,9.28-4.18,18.21-4.77,8.47-.55,17.32,2.57,17.36,5.11.04,2.67-9.67,5.29-16.34,6.13-10.31,1.29-11.99-1.86-21.79.17-4.67.97-7,2.24-9.7.85-4.19-2.16-6.11-9.07-4.09-11.06Z"/>
    <path class="cls-1" d="m51.16,19.22c.14-2.49,6.78-4.53,12.26-4.21,3.35.19,7.72,1.35,7.79,2.81.03.58.47,1.63-1.53,1.96s-11.39,3.32-12.77,3.66-5.85-2.35-5.74-4.21Z"/>
    <path class="cls-2" d="m55.15,21.39C56.96,14.79,44.04,2.28,29.79.29c-4.45-.62-8.82-.19-12.79.85-3.81,1-7.25,2.55-10.02,4.24C2.68,8.01-.01,11,0,12.8,0,12.8,4,13.3,9.81,14.59c2.37.53,5.04,1.18,7.86,1.99,3.61,1.03,7.47,2.31,11.27,3.88,7.08,3.53,10.83,4.84,18.13,5.02.52.01,7-.13,8.09-4.09Z"/>
    <path class="cls-5" d="m58.64,25.92s-1.7-2.83-3.23-3,0-1.7,0-1.7l2.21.97-.94-9.99s3.45-2.63,4.53,1.24l-.8,11.44c-.75.17-1.78,1.04-1.78,1.04Z"/>
    <path class="cls-3" d="m89.96,22.77c-1.6-.08-3.69.52-4.09,1.62-.53,1.5,2.14,3.75,4.94,3.79,1.57.03,3.56-.64,3.91-1.76.47-1.51-2.11-3.53-4.77-3.66Z"/>
    <path class="cls-6" d="m21.62,13.67c.11-.91,9.96-2.35,19.49,2.44,1.4.7,9.55,5.48,9.53,5.53-.1.42-7.58.64-14.98-1.36-7.09-1.91-14.12-6.03-14.04-6.61Z"/>
  </g>
</svg>