<?xml version="1.0" encoding="UTF-8"?>
<svg id="Layer_2" data-name="Layer 2" xmlns="http://www.w3.org/2000/svg" viewBox="0 0 111.75 107.56">
  <defs>
    <style>
      .cls-1 {
        fill: #009444;
      }

      .cls-2 {
        fill: #fff;
        opacity: .83;
      }

      .cls-3 {
        fill: #39b54a;
      }

      .cls-4 {
        fill: #e6e7e8;
        opacity: .77;
      }

      .cls-5 {
        fill: #c49a6c;
        stroke: #754c29;
        stroke-width: .5px;
      }

      .cls-5, .cls-6 {
        stroke-miterlimit: 10;
      }

      .cls-6 {
        fill: #d7df23;
        stroke: #8dc63f;
      }
    </style>
  </defs>
  <g id="apple4">
    <path class="cls-6" d="m68.87,12.33c-7.65-.76-26.55.77-38.81,7.4-12.26,6.64-19.66,18.64-19.66,41.87s24.51,40.6,28.98,41.87c4.47,1.28,10.09,0,10.09,0,0,0,5.62,3.57,11.74,3.57s17.87-4.34,17.87-4.34c3.4,1.45,5.36,1.02,5.36,1.02,7.4-3.83,26.81-32.68,26.81-47.74s-7.4-30.13-19.4-36.51c-12-6.38-15.32-6.38-22.98-7.15Z"/>
    <path class="cls-2" d="m35.52,29.5c2.2-2.17,5.22,1.16,14.56,1.19,8.03.03,10.14-.9,18.21-4.77,5.69-2.72,14.13,3.4,17.36,5.11,2.36,1.24-9.67,5.29-16.34,6.13-10.31,1.29-11.44.44-21.24,2.47-4.67.97-7.41-.35-10.25-1.45-7.07-2.72-4.33-6.69-2.31-8.68Z"/>
    <path class="cls-4" d="m47.78,18.25c.14-2.49,6.78-4.53,12.26-4.21,3.35.19,7.72,1.35,7.79,2.81.03.58.47,1.63-1.53,1.96s-11.39,3.32-12.77,3.66-5.85-2.35-5.74-4.21Z"/>
    <path class="cls-3" d="m54.31,20.22c1.81-6.6-6.31-14.87-19.71-19.47-4.25-1.46-9.72-.35-13.82-.3-3.48.05-6.22-1.37-14.64,3.76C1.33,7.13,0,10.84,0,10.84c1.79,1.66,8.92,6.31,13.21,8.11s12.77,3.35,12.77,3.35c0,0,12.95,1.83,20.25,2.01.52.01,7-.13,8.09-4.09Z"/>
    <path class="cls-3" d="m54.72,19.44c-.98-6.87,2.68-11.64,8.8-16.84,2.12-1.8,8.79-3.5,13.4,1.91,2.59,3.05,7.11,5.15,7.11,5.15-.96,1.73-4.81,6.57-7.13,8.44s-6.89,3.49-6.89,3.49c0,0-6.99,1.91-10.93,2.1-.28.01-3.78-.14-4.36-4.25Z"/>
    <path class="cls-1" d="m56.37,13.2c.46-.67,1.9-2.78,3.7-2.68,1.36.07,1.53,1.33,4.72,3.64,1.35.98,1.6,1.23,1.91,1.66s-2.43,3.65-4.09,4.53c-1.22.65-4.87,2.6-6.83,1.02-1.96-1.58-1.07-5.77.57-8.17Z"/>
    <path class="cls-5" d="m55.25,24.95s-1.7-2.83-3.23-3,0-1.7,0-1.7l2.21.97-.94-9.99s3.45-2.63,4.53,1.24l-.8,11.44c-.75.17-1.78,1.04-1.78,1.04Z"/>
    <path class="cls-2" d="m85.62,22.96c-1.6-.08-3.69.52-4.09,1.62-.53,1.5,2.14,3.75,4.94,3.79,1.57.03,4.86,1.12,5.22,0,.47-1.51-3.42-5.29-6.07-5.42Z"/>
    <path class="cls-1" d="m20.03,13.74c.11-.91-5.29-10.56,4.25-5.77,1.4.7,22.99,12.65,22.98,12.71-.1.42-7.58.64-14.98-1.36-7.09-1.91-12.32-4.98-12.25-5.57Z"/>
    <path class="cls-2" d="m32.24,31.08c.75-1.42.8-3.63-.04-4.46-1.14-1.12-5.88-1.5-7.11,1.01-.69,1.41,2.43,4.25,3.29,5.04,1.17,1.07,2.62.75,3.86-1.6Z"/>
  </g>
</svg>