<?xml version="1.0" encoding="UTF-8"?>
<svg id="Layer_2" data-name="Layer 2" xmlns="http://www.w3.org/2000/svg" viewBox="0 0 108.36 108.71">
  <defs>
    <style>
      .cls-1 {
        fill: #d1d3d4;
        opacity: .77;
      }

      .cls-2 {
        fill: #009444;
      }

      .cls-3 {
        fill: #fff;
        opacity: .83;
      }

      .cls-4 {
        fill: #ce3045;
        stroke: #b32c39;
      }

      .cls-4, .cls-5 {
        stroke-miterlimit: 10;
      }

      .cls-6 {
        fill: #006838;
      }

      .cls-5 {
        fill: #c49a6c;
        stroke: #754c29;
        stroke-width: .5px;
      }
    </style>
  </defs>
  <g id="apple2">
    <path id="a" class="cls-4" d="m36.22,15.72c7.6-1.16,26.56-.6,39.14,5.41,12.58,6,20.63,19.93,21.82,43.14,1.19,23.2-22.44,39.47-26.83,40.98-4.4,1.5-8.12.74-8.12.74,0,0-5.38,1.88-11.5,2.19s-20.07-1.67-20.07-1.67c-3.33,1.62-8.82-1.1-8.82-1.1C9.12,97.87,3.96,83.41.64,69.12-.13,54.07,1.98,31.03,13.64,24.04c11.66-6.99,14.97-7.16,22.58-8.32Z"/>
    <path class="cls-3" d="m74.21,29.23c-2.31-2.05-5.97,5.16-15.29,5.66-8.02.44-13.85,0-21-5.06s-15.45,3.43-15.36,5.96c.1,2.66,9.93,4.79,16.63,5.28,10.37.76,11.87-2.47,21.77-.95,4.71.73,7.1,1.88,9.73.35,4.07-2.37,5.63-9.38,3.51-11.26Z"/>
    <path class="cls-1" d="m57.59,20.55c-.27-2.48-7.01-4.18-12.46-3.58-3.34.36-7.64,1.75-7.63,3.2,0,.58-.39,1.65,1.63,1.88s11.55,2.73,12.94,3,5.72-2.65,5.52-4.5Z"/>
    <path class="cls-2" d="m53.72,22.92c-2.14-6.5,10.11-19.66,24.25-22.38,4.41-.85,8.8-.64,12.82.19,3.86.8,7.37,2.17,10.23,3.72,4.43,2.41,7.27,5.25,7.35,7.05,0,0-3.97.71-9.7,2.29-2.34.65-4.97,1.44-7.75,2.39-3.55,1.22-7.34,2.69-11.06,4.45-6.89,3.89-10.57,5.39-17.85,5.94-.52.04-7,.23-8.28-3.67Z"/>
    <path class="cls-5" d="m50.47,27.62s1.55-2.91,3.08-3.16-.09-1.7-.09-1.7l-2.16,1.08.42-10.02s-3.58-2.45-4.46,1.47l1.38,11.39c.76.13,1.83.95,1.83.95Z"/>
    <path class="cls-3" d="m19.03,26.08c1.6-.16,3.71.33,4.16,1.41.61,1.48-1.95,3.85-4.74,4.04-1.57.11-3.59-.45-4-1.56-.55-1.48,1.93-3.63,4.57-3.89Z"/>
    <path class="cls-6" d="m83.94,14c-.16-.9-11.9-4.96-21.17.31-1.36.77-7.42,9.09-7.4,9.14.13.42,7.6.25,14.89-2.13s13.79-6.74,13.69-7.32Z"/>
  </g>
</svg>